<?xml version="1.0" standalone="no"?>
<!DOCTYPE svg PUBLIC "-//W3C//DTD SVG 20010904//EN"
 "http://www.w3.org/TR/2001/REC-SVG-20010904/DTD/svg10.dtd">
<svg version="1.0" xmlns="http://www.w3.org/2000/svg"
     width="143px" height="157px" viewBox="0 0 1277.000000 1399.000000"
 preserveAspectRatio="xMidYMid meet">
<metadata>
Created by potrace 1.16, written by Peter Selinger 2001-2019
</metadata>
<g transform="translate(0.000000,1399.000000) scale(0.100000,-0.100000)"
fill="#000000" stroke="none">
<path d="M2107 13983 c-15 -25 -29 -252 -24 -382 11 -268 69 -496 187 -730 53
-106 89 -163 99 -159 5 2 31 24 60 50 l51 46 -39 69 c-155 275 -232 624 -203
920 7 65 15 135 18 156 l7 37 -76 0 c-42 0 -78 -3 -80 -7z"/>
<path d="M2376 13973 c-16 -54 -26 -166 -26 -300 0 -176 22 -327 70 -473 37
-112 137 -320 154 -320 14 0 126 59 126 66 0 2 -27 59 -60 127 -96 197 -140
385 -140 597 0 104 11 215 26 276 6 24 8 24 -103 38 -34 5 -43 3 -47 -11z"/>
<path d="M1875 13971 c-37 -6 -40 -9 -47 -46 -15 -93 -20 -296 -9 -417 25
-272 87 -498 200 -732 51 -105 160 -286 172 -286 9 0 89 116 89 128 0 4 -29
58 -63 119 -76 132 -155 328 -191 471 -45 182 -59 316 -52 517 3 99 9 197 12
218 l6 37 -38 -1 c-22 -1 -57 -5 -79 -8z"/>
<path d="M2629 13878 c-19 -104 -17 -333 4 -441 22 -107 67 -237 117 -337 62
-121 54 -116 138 -90 40 12 72 24 72 28 0 3 -13 26 -30 51 -122 191 -188 471
-161 688 6 54 14 108 17 119 5 20 0 23 -47 33 -30 7 -63 14 -75 17 -20 5 -23
0 -35 -68z"/>
<path d="M1631 13920 c-35 -10 -67 -24 -72 -31 -12 -20 -11 -361 2 -477 43
-395 203 -798 446 -1125 36 -48 68 -86 70 -83 3 2 17 41 33 85 l28 81 -75 112
c-199 300 -322 658 -354 1028 -10 124 -7 318 7 398 7 38 5 38 -85 12z"/>
<path d="M2893 13843 c-4 -21 -8 -108 -7 -193 1 -137 4 -165 27 -241 36 -117
67 -187 128 -278 l51 -78 99 1 c54 1 99 3 99 5 0 2 -23 28 -51 59 -69 76 -133
189 -171 302 -30 90 -32 104 -33 255 l-2 160 -59 22 c-32 12 -62 22 -66 22 -4
1 -11 -16 -15 -36z"/>
<path d="M1358 13827 l-78 -32 0 -125 c0 -415 109 -849 302 -1210 101 -188
263 -415 392 -548 l51 -53 12 101 12 101 -71 87 c-211 261 -382 603 -463 924
-51 197 -67 322 -74 560 l-6 226 -77 -31z"/>
<path d="M3147 13723 c-12 -116 20 -271 79 -384 118 -225 335 -367 590 -386
69 -6 244 13 244 25 0 4 -18 34 -41 67 l-40 60 -89 -3 c-108 -5 -177 9 -266
52 -92 45 -165 105 -220 181 -61 87 -94 171 -108 284 l-12 94 -59 34 c-33 18
-63 33 -66 33 -3 0 -9 -26 -12 -57z"/>
<path d="M1077 13687 l-69 -42 6 -90 c31 -453 117 -782 297 -1145 125 -250
254 -441 444 -653 91 -101 294 -291 302 -283 2 2 -3 55 -12 117 l-17 114 -94
95 c-374 380 -632 889 -724 1428 -21 124 -40 333 -40 438 0 45 -4 64 -12 63
-7 0 -44 -19 -81 -42z"/>
<path d="M3417 13593 c30 -191 203 -354 394 -370 l73 -6 -32 40 c-36 46 -167
171 -255 245 -56 47 -171 128 -181 128 -3 0 -2 -17 1 -37z"/>
<path d="M824 13511 l-70 -58 8 -89 c43 -465 210 -948 469 -1356 183 -290 486
-619 749 -815 152 -113 268 -188 277 -180 3 4 -8 28 -25 54 -17 26 -48 84 -69
129 -36 75 -44 86 -138 161 -651 523 -1052 1286 -1111 2116 -4 53 -9 97 -13
97 -3 0 -38 -27 -77 -59z"/>
<path d="M599 13303 c-97 -102 -90 -83 -69 -210 53 -308 161 -636 305 -923 46
-91 59 -110 73 -105 9 4 48 10 85 12 37 3 66 9 65 12 -2 4 -28 56 -59 116
-160 310 -271 657 -322 1005 l-22 150 -56 -57z"/>
<path d="M398 13060 c-49 -66 -98 -149 -98 -167 0 -29 75 -298 115 -412 69
-199 168 -419 257 -574 l51 -90 20 59 c10 32 29 73 42 89 l23 30 -63 125
c-136 272 -257 632 -312 930 l-9 45 -26 -35z"/>
<path d="M6000 13073 c-297 -28 -520 -131 -712 -331 -137 -142 -222 -287 -291
-493 -54 -161 -70 -261 -70 -439 -1 -603 309 -1059 847 -1249 123 -43 236 -61
391 -61 260 0 489 67 690 203 198 134 393 428 430 645 l7 42 -321 0 c-234 0
-321 -3 -321 -11 0 -25 -71 -156 -106 -198 -51 -59 -143 -117 -227 -143 -141
-42 -340 -6 -481 87 -168 111 -250 286 -278 589 -26 282 42 552 172 690 94 99
238 158 388 157 161 0 267 -46 373 -159 84 -90 139 -209 139 -304 l0 -38 -445
0 -445 0 0 -230 0 -230 776 0 777 0 -6 148 c-9 250 -53 429 -158 652 -94 198
-221 361 -369 471 -190 141 -509 226 -760 202z"/>
<path d="M8379 13059 c-159 -23 -298 -72 -416 -145 -230 -143 -347 -351 -346
-619 0 -189 58 -333 181 -455 139 -137 291 -194 778 -294 373 -77 426 -96 471
-174 24 -40 28 -58 28 -122 0 -86 -14 -119 -75 -180 -82 -82 -205 -124 -360
-122 -269 2 -423 101 -489 313 -11 35 -22 76 -26 92 l-5 27 -281 0 -282 0 7
-70 c10 -100 31 -173 76 -268 80 -167 173 -279 304 -367 191 -127 398 -178
716 -178 319 0 525 59 701 201 145 116 239 254 281 411 30 110 30 297 0 404
-35 122 -85 213 -161 287 -139 137 -322 201 -800 280 -280 46 -346 65 -424
125 -143 109 -75 316 130 396 80 31 270 39 363 15 163 -42 266 -155 293 -321
l12 -75 268 0 268 0 -7 78 c-14 165 -76 327 -169 444 -121 152 -366 273 -635
313 -102 16 -309 18 -401 4z"/>
<path d="M10880 13059 c-380 -44 -596 -173 -726 -434 -51 -103 -79 -206 -89
-323 l-8 -82 285 0 285 0 7 51 c11 80 43 154 93 209 57 63 110 95 193 114 221
52 472 -27 540 -171 32 -68 26 -174 -12 -229 -70 -100 -216 -146 -593 -189
-255 -29 -382 -62 -537 -142 -168 -86 -294 -221 -360 -386 -32 -79 -33 -87
-33 -227 0 -133 2 -152 29 -234 105 -320 426 -516 846 -516 264 0 467 67 678
222 30 22 54 38 55 36 1 -1 16 -43 32 -93 l30 -90 303 -3 c166 -1 302 0 302 3
0 2 -11 37 -24 77 -41 120 -46 210 -46 763 0 1051 -26 1203 -234 1410 -68 68
-98 89 -186 133 -116 57 -221 87 -350 102 -101 12 -374 11 -480 -1z m621
-1692 c-21 -190 -137 -309 -360 -369 -114 -31 -305 -31 -383 0 -252 101 -255
424 -5 547 78 38 176 66 321 91 193 33 327 74 395 120 l36 24 3 -162 c1 -90
-2 -202 -7 -251z"/>
<path d="M4075 12859 c-16 -5 -67 -14 -112 -20 l-82 -12 67 -63 c37 -35 75
-63 86 -64 25 0 139 30 149 40 11 10 -50 130 -66 129 -6 0 -25 -5 -42 -10z"/>
<path d="M180 12673 c-66 -157 -65 -137 -15 -281 142 -414 358 -804 654 -1177
118 -149 440 -472 582 -584 358 -281 690 -470 1090 -620 279 -104 686 -204
738 -181 62 27 182 103 174 110 -4 4 -48 13 -98 20 -487 69 -1018 268 -1448
542 -494 314 -928 765 -1226 1272 -162 275 -318 649 -391 934 -6 23 -14 42
-19 42 -5 0 -23 -35 -41 -77z"/>
<path d="M4168 12612 c-32 -9 -58 -20 -58 -24 0 -5 17 -34 37 -66 21 -31 38
-58 38 -59 5 -10 105 30 105 41 0 27 -43 126 -54 125 -6 -1 -37 -9 -68 -17z"/>
<path d="M3018 12526 c-75 -26 -88 -33 -88 -47 0 -15 191 -136 283 -179 141
-66 301 -112 471 -136 47 -6 48 -6 41 17 -4 13 -19 48 -34 78 l-27 54 -110 27
c-165 42 -296 96 -420 175 l-52 33 -64 -22z"/>
<path d="M2786 12347 c-20 -29 -36 -58 -36 -64 0 -17 198 -147 312 -204 l98
-49 283 2 c155 2 271 6 257 10 -14 3 -70 14 -125 23 -216 37 -472 145 -653
275 -46 33 -87 60 -91 60 -5 0 -25 -24 -45 -53z"/>
<path d="M47 12263 c-42 -199 -42 -201 4 -305 107 -246 286 -547 470 -793 249
-333 571 -647 919 -895 358 -256 836 -488 1235 -600 72 -20 85 -21 130 -10 72
18 217 71 211 77 -3 3 -72 23 -153 44 -1239 320 -2252 1213 -2725 2402 -35 86
-65 157 -69 157 -3 0 -13 -35 -22 -77z"/>
<path d="M2671 12095 c-13 -42 -21 -78 -20 -79 12 -11 178 -116 183 -116 3 0
6 29 6 65 0 63 1 65 25 65 14 0 25 3 24 8 0 6 -168 121 -189 130 -4 1 -17 -32
-29 -73z"/>
<path d="M2630 11802 l0 -91 58 -34 c60 -37 137 -77 147 -77 3 0 5 37 5 83 l0
82 -98 60 c-53 33 -100 62 -104 63 -5 2 -8 -37 -8 -86z"/>
<path d="M0 11720 c0 -178 16 -275 58 -345 443 -740 1135 -1361 1927 -1728
l150 -70 172 6 c94 3 179 9 188 14 13 8 -5 17 -77 43 -563 200 -1095 533
-1532 960 -344 336 -594 673 -825 1110 l-61 115 0 -105z"/>
<path d="M1270 11700 c-7 -17 -26 -49 -42 -71 l-29 -40 72 -87 c104 -125 336
-353 464 -456 562 -450 1251 -713 1949 -744 l151 -7 35 39 c40 44 54 66 43 66
-4 0 -55 -10 -113 -22 -139 -28 -382 -30 -515 -4 -258 51 -553 185 -735 335
-25 21 -97 64 -160 98 -210 109 -404 238 -587 390 -119 99 -344 327 -437 443
-37 47 -71 86 -76 88 -4 1 -13 -11 -20 -28z"/>
<path d="M2856 11591 c15 -14 253 -97 345 -120 190 -47 588 -76 938 -69 180 4
235 8 241 19 9 14 25 157 19 164 -2 2 -87 -1 -189 -7 -196 -11 -705 -4 -875
12 -130 12 -492 13 -479 1z"/>
<path d="M2624 11553 c4 -21 16 -66 27 -100 l20 -61 107 -47 c215 -95 454
-164 692 -200 140 -21 438 -30 574 -17 98 10 111 13 138 39 39 38 112 132 106
138 -3 3 -52 -3 -109 -12 -79 -13 -163 -17 -349 -17 -219 1 -261 4 -390 27
-255 46 -466 115 -692 228 -65 33 -121 59 -124 59 -3 0 -3 -17 0 -37z"/>
<path d="M912 11531 c2 -6 42 -59 90 -119 506 -636 1193 -1078 1983 -1276 121
-30 287 -60 453 -81 l122 -16 80 68 c88 75 88 81 -5 82 -109 2 -354 38 -545
81 -633 143 -1218 467 -1680 930 -80 80 -181 189 -224 242 -72 89 -82 97 -105
90 -33 -9 -97 -9 -139 0 -20 5 -32 4 -30 -1z"/>
<path d="M2816 11176 c10 -25 123 -111 205 -155 168 -90 359 -135 574 -135
164 0 235 13 335 62 l55 26 -200 7 c-300 10 -511 49 -785 143 -85 29 -163 56
-173 61 -13 5 -16 4 -11 -9z"/>
<path d="M136 11008 c53 -142 140 -309 238 -458 72 -108 115 -161 221 -265
165 -164 378 -338 500 -411 106 -62 248 -127 375 -172 100 -35 299 -86 307
-79 3 3 -18 18 -47 32 -176 89 -495 299 -681 447 -331 264 -654 603 -874 917
-31 45 -60 81 -65 81 -4 0 8 -42 26 -92z"/>
<path d="M4940 6389 l0 -590 248 3 247 3 51 28 c107 59 126 112 132 363 3 154
1 203 -12 255 -21 84 -59 137 -121 168 -44 23 -63 26 -182 29 l-133 4 0 164 0
164 -115 0 -115 0 0 -591z m415 25 c30 -32 39 -98 33 -232 -7 -151 -26 -172
-148 -172 l-70 0 0 215 0 215 80 0 c74 0 83 -2 105 -26z"/>
<path d="M7460 6865 l0 -115 115 0 115 0 0 115 0 115 -115 0 -115 0 0 -115z"/>
<path d="M5790 6350 c0 -177 4 -320 11 -350 16 -73 64 -139 124 -170 48 -24
54 -25 297 -28 l248 -3 0 425 0 426 -120 0 -120 0 0 -320 0 -320 -71 0 c-137
0 -139 5 -139 365 l0 275 -115 0 -115 0 0 -300z"/>
<path d="M6830 6634 c-75 -20 -124 -55 -157 -111 -25 -44 -28 -57 -28 -143 0
-105 10 -133 66 -188 37 -36 120 -66 214 -77 81 -10 125 -29 125 -54 0 -44
-32 -51 -227 -51 l-183 0 0 -106 0 -106 223 5 c230 4 269 10 328 50 57 38 83
98 87 204 4 81 2 97 -21 145 -39 87 -99 120 -260 144 -55 8 -107 20 -114 26
-17 14 -16 33 3 52 13 13 45 16 190 16 l174 0 0 105 0 105 -182 -1 c-128 0
-200 -5 -238 -15z"/>
<path d="M7460 6225 l0 -425 115 0 115 0 0 425 0 425 -115 0 -115 0 0 -425z"/>
<path d="M7880 6226 l0 -426 115 0 115 0 0 320 0 320 74 0 c65 0 79 -3 103
-24 l28 -24 3 -296 3 -296 114 0 115 0 0 313 c0 347 -5 382 -61 450 -17 21
-50 48 -72 60 -40 21 -56 22 -289 25 l-248 3 0 -425z"/>
<path d="M8945 6639 c-93 -22 -177 -107 -206 -209 -8 -28 -13 -106 -13 -205 0
-193 13 -248 75 -319 77 -88 145 -106 389 -106 l170 0 0 104 0 105 -170 3
c-166 3 -170 4 -195 28 -13 14 -27 40 -31 58 l-6 32 222 0 222 0 -4 148 c-3
128 -7 154 -27 200 -31 69 -106 137 -174 157 -56 16 -188 18 -252 4z m174
-195 c28 -20 51 -72 51 -114 l0 -30 -105 0 -105 0 0 34 c0 78 39 125 105 126
17 0 41 -7 54 -16z"/>
<path d="M9742 6634 c-117 -31 -180 -106 -189 -228 -8 -94 16 -164 72 -214 48
-43 106 -63 234 -82 80 -12 101 -22 101 -51 0 -42 -33 -49 -227 -49 l-183 0 0
-106 0 -106 228 4 c220 3 229 4 283 29 95 45 131 113 131 249 0 98 -25 158
-84 200 -50 37 -84 47 -209 68 -114 19 -138 35 -105 71 18 20 30 21 193 21
l173 0 0 105 0 105 -182 -1 c-125 0 -200 -5 -236 -15z"/>
<path d="M10535 6636 c-142 -35 -201 -119 -193 -274 4 -97 28 -146 91 -189 46
-31 78 -40 220 -64 92 -15 116 -40 77 -79 -19 -19 -33 -20 -205 -20 l-185 0 0
-106 0 -106 223 4 c247 5 288 14 347 71 44 42 61 86 67 172 14 183 -70 273
-282 300 -99 13 -125 24 -125 50 0 14 8 29 19 35 12 6 92 10 190 10 l171 0 0
105 0 105 -182 -1 c-108 0 -204 -6 -233 -13z"/>
<path d="M4940 4885 l0 -115 115 0 115 0 0 115 0 115 -115 0 -115 0 0 -115z"/>
<path d="M7770 4410 l0 -590 223 0 c255 0 303 9 366 66 21 19 49 58 62 87 23
50 24 62 24 267 0 248 -10 295 -75 360 -54 54 -111 70 -252 70 l-118 0 0 165
0 165 -115 0 -115 0 0 -590z m410 32 c27 -22 39 -80 39 -192 0 -184 -23 -220
-145 -220 l-74 0 0 215 0 215 79 0 c61 0 84 -4 101 -18z"/>
<path d="M10030 4885 l0 -115 115 0 115 0 0 115 0 115 -115 0 -115 0 0 -115z"/>
<path d="M9490 4795 l0 -125 -60 0 -60 0 0 -105 0 -105 60 0 60 0 0 -222 c0
-123 5 -239 10 -259 16 -56 51 -102 100 -129 40 -22 59 -25 183 -28 l137 -4 0
111 0 111 -77 0 c-43 0 -83 4 -89 8 -29 19 -34 56 -34 231 l0 181 100 0 100 0
0 105 0 105 -100 0 -100 0 0 125 0 125 -115 0 -115 0 0 -125z"/>
<path d="M4940 4245 l0 -425 115 0 115 0 0 425 0 425 -115 0 -115 0 0 -425z"/>
<path d="M5360 4245 l0 -425 115 0 115 0 0 320 0 320 78 0 c91 0 116 -13 132
-68 5 -21 10 -151 10 -304 l0 -268 116 0 115 0 -3 328 -3 327 -28 58 c-16 31
-43 68 -61 82 -65 49 -100 55 -352 55 l-234 0 0 -425z"/>
<path d="M6409 4651 c-102 -33 -157 -93 -185 -203 -12 -47 -15 -100 -12 -232
4 -193 16 -237 86 -309 61 -62 122 -79 305 -85 l157 -4 0 106 0 106 -114 0
c-63 0 -126 4 -140 10 -46 17 -60 54 -64 167 -6 140 3 189 38 225 28 28 29 28
154 28 l126 0 0 105 0 105 -147 -1 c-113 0 -161 -4 -204 -18z"/>
<path d="M6900 4398 c0 -368 13 -440 87 -510 60 -57 86 -62 351 -66 l242 -4 0
426 0 426 -115 0 -115 0 0 -320 0 -320 -76 0 c-70 0 -78 2 -105 29 l-29 29 0
291 0 291 -120 0 -120 0 0 -272z"/>
<path d="M8650 4565 l0 -105 138 0 c197 0 242 -18 242 -97 l0 -33 -72 0 c-259
-1 -368 -76 -368 -254 0 -127 33 -190 120 -230 41 -19 66 -21 298 -24 l252 -4
0 319 c0 365 -5 398 -69 462 -59 59 -119 71 -349 71 l-192 0 0 -105z m380
-481 l0 -76 -84 3 c-94 4 -126 22 -126 69 0 56 40 78 148 79 l62 1 0 -76z"/>
<path d="M10030 4245 l0 -425 115 0 115 0 0 425 0 425 -115 0 -115 0 0 -425z"/>
<path d="M10635 4657 c-166 -55 -214 -167 -202 -468 8 -184 36 -258 122 -316
86 -58 284 -70 393 -23 67 29 127 96 147 163 21 71 21 393 0 464 -22 75 -65
126 -132 159 -52 26 -69 29 -173 31 -74 2 -129 -2 -155 -10z m194 -201 c44
-23 51 -53 51 -216 0 -145 -1 -149 -26 -179 -22 -27 -32 -31 -74 -31 -101 0
-110 19 -110 217 0 99 4 156 13 173 24 47 92 64 146 36z"/>
<path d="M11290 4246 l0 -426 115 0 115 0 0 320 0 320 74 0 c65 0 79 -3 103
-24 l28 -24 3 -296 3 -296 114 0 115 0 0 313 c0 348 -5 388 -62 453 -17 19
-50 45 -72 57 -38 21 -56 22 -288 25 l-248 3 0 -425z"/>
<path d="M7320 2815 l0 -125 -55 0 -55 0 0 -100 0 -100 54 0 53 0 6 -227 c3
-126 10 -244 16 -264 19 -61 53 -103 106 -129 44 -22 66 -25 183 -28 l132 -4
0 111 0 111 -80 0 c-122 0 -120 -5 -120 235 l0 195 100 0 100 0 0 100 0 100
-100 0 -100 0 0 125 0 125 -120 0 -120 0 0 -125z"/>
<path d="M5135 2676 c-58 -18 -86 -34 -128 -74 -56 -55 -78 -123 -84 -272 -11
-240 24 -361 121 -427 69 -47 103 -54 274 -60 l152 -5 0 105 0 105 -126 4
-126 3 -29 33 -29 32 0 140 c0 76 4 150 10 164 18 47 52 60 181 64 l119 4 0
99 0 99 -147 -1 c-89 0 -164 -5 -188 -13z"/>
<path d="M5771 2669 c-64 -25 -125 -84 -155 -148 -19 -42 -21 -62 -21 -256 0
-201 1 -212 24 -255 31 -61 67 -97 121 -125 67 -34 145 -45 322 -45 l158 0 0
105 0 105 -150 0 c-170 0 -209 10 -234 59 -33 63 -38 61 204 61 l220 0 0 128
c0 199 -40 295 -150 356 -51 29 -62 31 -170 33 -97 3 -123 0 -169 -18z m211
-180 c25 -13 48 -68 48 -114 l0 -35 -105 0 -105 0 0 40 c0 46 21 94 47 109 24
14 89 14 115 0z"/>
<path d="M6430 2265 l0 -425 120 0 120 0 0 326 0 327 77 -6 c64 -5 80 -10 102
-32 l26 -25 3 -295 3 -295 114 0 115 0 0 313 c0 370 -4 395 -79 467 -67 65
-91 70 -365 70 l-236 0 0 -425z"/>
<path d="M8009 2663 c-66 -34 -113 -94 -128 -163 -7 -31 -11 -173 -11 -355 l0
-305 115 0 115 0 0 270 c0 352 3 360 141 360 l59 0 0 110 0 110 -118 0 c-109
0 -123 -2 -173 -27z"/>
<path d="M8586 2674 c-34 -11 -64 -31 -102 -68 -44 -44 -56 -65 -74 -125 -20
-64 -22 -89 -19 -239 4 -166 4 -168 37 -234 36 -73 76 -109 156 -141 44 -18
80 -21 249 -25 l197 -4 0 106 0 106 -157 0 c-106 0 -166 4 -182 13 -27 14 -56
51 -66 85 l-6 22 225 0 226 0 0 103 c0 184 -31 282 -112 351 -23 20 -65 43
-92 51 -64 19 -216 18 -280 -1z m207 -194 c14 -11 28 -34 31 -50 3 -17 9 -43
12 -60 l6 -30 -111 0 c-109 0 -111 1 -111 23 0 38 19 89 42 114 28 30 94 32
131 3z"/>
<path d="M4925 909 c-3 -13 -4 -181 -3 -374 l3 -350 150 -3 c172 -3 219 6 263
52 41 42 52 75 52 154 0 73 -20 118 -67 155 l-24 20 25 26 c34 36 46 72 46
140 0 83 -31 139 -95 171 -45 22 -65 25 -197 28 l-147 4 -6 -23z m295 -94 c38
-20 50 -43 50 -99 0 -83 -53 -115 -187 -116 l-63 0 0 115 0 115 85 0 c57 0 96
-5 115 -15z m15 -320 c38 -19 55 -51 55 -105 0 -92 -42 -120 -179 -120 l-91 0
0 120 0 120 91 0 c61 0 102 -5 124 -15z"/>
<path d="M5623 700 c-18 -11 -33 -25 -34 -32 -1 -7 -4 -2 -8 12 -6 22 -12 25
-51 25 l-45 0 0 -260 0 -260 48 -3 47 -3 0 171 c0 140 3 177 16 199 20 35 49
53 94 61 35 5 35 6 35 55 0 50 0 50 -35 53 -22 1 -47 -5 -67 -18z"/>
<path d="M5951 704 c-32 -12 -46 -13 -51 -4 -4 6 -24 10 -46 8 l-39 -3 -3
-262 -2 -263 44 0 c31 0 46 5 50 16 3 9 6 101 6 205 l0 190 35 15 c44 18 96
18 121 0 18 -13 19 -30 22 -221 l3 -206 47 3 47 3 0 215 c0 198 -2 218 -20
250 -38 65 -121 86 -214 54z"/>
<path d="M6387 706 c-49 -18 -64 -32 -88 -79 -18 -35 -20 -55 -17 -197 3 -176
8 -190 79 -238 30 -21 43 -23 116 -20 91 3 123 19 158 79 16 28 20 57 23 164
5 149 -5 200 -48 248 -47 54 -142 72 -223 43z m140 -100 c28 -24 28 -26 31
-149 4 -145 -6 -178 -61 -196 -41 -14 -78 -3 -101 31 -20 29 -23 273 -3 299
34 44 92 51 134 15z"/>
</g>
</svg>
