<?xml version="1.0" encoding="UTF-8"?>
<svg width="159px" height="167px" viewBox="0 0 159 167" version="1.1" xmlns="http://www.w3.org/2000/svg" xmlns:xlink="http://www.w3.org/1999/xlink">
    <!-- Generator: Sketch 55.2 (78181) - https://sketchapp.com -->
    <title>start-button</title>
    <desc>Created with Sketch.</desc>
    <g id="Welcome" stroke="none" stroke-width="1" fill="none" fill-rule="evenodd">
        <g id="WEB_V2" transform="translate(-1281.000000, -1574.000000)" fill-rule="nonzero">
            <g id="start-button" transform="translate(1281.000000, 1574.000000)">
                <path d="M42.3974912,45.0112203 L27.9573626,46.1268324 C23.939271,46.4373938 20.360653,48.5432865 18.1385439,51.9044464 L1.48509552,77.0918226 C-0.200204678,79.64077 -0.468120858,82.8306979 0.767939571,85.6250994 C2.00432554,88.419501 4.5451345,90.3668577 7.56448148,90.834653 L20.7861287,92.8822749 C23.8790468,76.4687466 31.283039,60.0955848 42.3974912,45.0112203 Z" id="Path" fill="#FFFFFF"></path>
                <path d="M73.7931657,145.889312 L75.8411131,159.110959 C76.3089084,162.130306 78.2562651,164.671115 81.0503411,165.907175 C82.2128304,166.421522 83.4433567,166.675441 84.6676979,166.675441 C86.3875049,166.675441 88.0952671,166.174441 89.5839435,165.190019 L114.771971,148.536897 C118.133131,146.314462 120.239023,142.735519 120.548934,138.718078 L121.664546,124.277949 C106.579856,135.392727 90.2070195,142.796719 73.7931657,145.889312 L73.7931657,145.889312 Z" id="Path" fill="#FFFFFF"></path>
                <path d="M68.8206023,136.725146 C69.2796082,136.725146 69.7412183,136.687384 70.2018519,136.610558 C77.0784756,135.460764 83.7063899,133.523825 90.0289513,130.98855 L35.6872164,76.6468148 C33.1519415,82.9690507 31.2150019,89.5969649 30.0652086,96.4739142 C29.6120624,99.184653 30.5212846,101.946175 32.4644094,103.889626 L62.7861404,134.211357 C64.3994971,135.824388 66.5770078,136.725146 68.8206023,136.725146 Z" id="Path" fill="#FFFFFF"></path>
                <path d="M153.385431,73.8976628 C166.683253,48.1887778 167.175789,21.0208402 166.48077,8.27935867 C166.242803,3.91359454 162.762172,0.432962963 158.396082,0.194996101 C156.321441,0.0817095517 153.862667,0 151.091378,0 C136.843967,0 114.300269,2.15797856 92.7777778,13.2903353 C75.673462,22.1374288 53.2450039,41.6178324 40.012614,67.2186394 C40.1688713,67.3407154 40.3215478,67.4702788 40.4654347,67.6141657 L99.0619259,126.210657 C99.2058129,126.354544 99.3350507,126.506895 99.4571267,126.663152 C125.057934,113.430437 144.538337,91.0019786 153.385431,73.8976628 Z M96.9114347,35.2360234 C106.430435,25.7170234 121.919766,25.7160468 131.439417,35.2360234 C136.050961,39.8472417 138.590468,45.9787135 138.590468,52.5001774 C138.590468,59.0216413 136.050961,65.1531131 131.439417,69.7643314 C126.680405,74.5233431 120.426858,76.9033372 114.175589,76.9039883 C107.922366,76.9039883 101.671749,74.5246452 96.9114347,69.7643314 C92.2998908,65.1531131 89.7600585,59.0216413 89.7600585,52.5001774 C89.7600585,45.9787135 92.2998908,39.8472417 96.9114347,35.2360234 Z" id="Shape" fill="#FFFFFF"></path>
                <path d="M103.817031,62.8584094 C109.528561,68.5699396 118.822616,68.5702651 124.534146,62.8584094 C127.300877,60.0913528 128.824712,56.4127953 128.824712,52.4998519 C128.824712,48.5869084 127.300877,44.9083509 124.534146,42.1416199 C121.678544,39.285692 117.927066,37.8578908 114.175589,37.8578908 C110.424437,37.8578908 106.672959,39.285692 103.817357,42.1416199 C101.050626,44.9083509 99.5264659,48.5869084 99.5264659,52.4998519 C99.5264659,56.4127953 101.0503,60.0916784 103.817031,62.8584094 Z" id="Path" fill="#0FB9B1"></path>
                <path d="M4.98232943,137.356035 C6.23206238,137.356035 7.48179532,136.87945 8.43496491,135.92563 L24.3774425,119.983152 C26.2844327,118.076162 26.2844327,114.984546 24.3774425,113.077556 C22.4707778,111.170565 19.3788363,111.170565 17.471846,113.077556 L1.52936842,129.020033 C-0.377621832,130.927023 -0.377621832,134.018639 1.52936842,135.92563 C2.48286355,136.879125 3.73259649,137.356035 4.98232943,137.356035 Z" id="Path" fill="#FFFFFF"></path>
                <path d="M38.9878265,127.68794 C37.0811618,125.780949 33.9892203,125.780949 32.08223,127.68794 L1.43138207,158.338788 C-0.475608187,160.245778 -0.475608187,163.337394 1.43138207,165.244384 C2.38487719,166.197879 3.63461014,166.674464 4.88434308,166.674464 C6.13407602,166.674464 7.38380897,166.197879 8.33697856,165.244058 L38.987501,134.593536 C40.8948168,132.686546 40.8948168,129.59493 38.9878265,127.68794 Z" id="Path" fill="#FFFFFF"></path>
                <path d="M46.6922885,142.298324 L30.7501365,158.240801 C28.8431462,160.147791 28.8431462,163.239407 30.7501365,165.146398 C31.7036316,166.099893 32.9533645,166.576803 34.2027719,166.576803 C35.4521793,166.576803 36.7022378,166.100218 37.6554074,165.146398 L53.597885,149.20392 C55.5048752,147.29693 55.5048752,144.205314 53.597885,142.298324 C51.6912203,140.391333 48.5992788,140.391333 46.6922885,142.298324 Z" id="Path" fill="#FFFFFF"></path>
            </g>
        </g>
    </g>
</svg>