<svg xmlns="http://www.w3.org/2000/svg" xmlns:xlink="http://www.w3.org/1999/xlink" width="4640.34" height="1454.12" viewBox="0 0 4640.34 1454.12">
  <defs>
    <radialGradient id="Sfumatura_senza_nome_3" data-name="Sfumatura senza nome 3" cx="2527.98" cy="2448.33" r="1665.11" gradientTransform="translate(-81.64 -155.98) rotate(-1.77) scale(1 1.1)" gradientUnits="userSpaceOnUse">
      <stop offset="0.22" stop-color="#fff"/>
      <stop offset="1" stop-color="#0071bc"/>
    </radialGradient>
    <radialGradient id="Sfumatura_senza_nome_11" data-name="Sfumatura senza nome 11" cx="2544.04" cy="2462.22" r="1674.54" gradientTransform="translate(-68.63 72.94) rotate(-1.62)" gradientUnits="userSpaceOnUse">
      <stop offset="0.15" stop-color="#fff"/>
      <stop offset="1" stop-color="#5872c9"/>
    </radialGradient>
  </defs>
  <title>LOGO SAB Aerospace SVG RE</title>
  <g id="Livello_17" data-name="Livello 17">
    <g>
      <path d="M4028.18,1914.55l4-3.14-3.75-4.41-3.9,3.22Z" transform="translate(-223.86 -1864.67)" style="fill: #fff"/>
      <path d="M3915.05,2033.22c0-1.54,0-3.08-.05-4.62,0,0,.12-.08.11-.11a1.43,1.43,0,0,0-.09-.27c0-.71,0-1.41,0-2.12,0-.16.09-.32.14-.48s0-.32,0-.49l.06-.54a77.62,77.62,0,0,1,2.83-18.62,88.59,88.59,0,0,1,10.19-23.8,105.59,105.59,0,0,1,9.49-13.09,118.45,118.45,0,0,1,15.63-15.32,151.68,151.68,0,0,1,16.75-11.81,179.72,179.72,0,0,1,31.09-15,196.76,196.76,0,0,1,31.1-9c7-1.39,14.11-2.71,21.22-3.71,6.52-.92,13.11-1.39,19.68-2,2.42-.22,4.86-.27,7.3-.4,1.94,0,3.88,0,5.83,0a11.36,11.36,0,0,0,1.7-.28h17.79l7.19.29c2.25.13,4.51.24,6.76.39a5.47,5.47,0,0,0,3.05-.65c7.57-4,15.11-8,22.79-11.75a245.49,245.49,0,0,1,24.56-10.44q10.05-3.62,20.2-7a202.47,202.47,0,0,1,21.16-5.55,7.8,7.8,0,0,1,1-.24c1-.07,1.39-.63,1.63-1.56.71-2.81,1.52-5.6,2.3-8.4.17-.62.37-1.23.61-2l4,1.1-2.59,9.67a217.7,217.7,0,0,1,30.82-3.54l11.45-.06,5.35.06h2.12l4.67.34a153.46,153.46,0,0,1,27.34,4.55,124,124,0,0,1,26.82,10.33,91.81,91.81,0,0,1,17.66,11.88c2.93,2.59,5.86,5.2,8.57,8a84.49,84.49,0,0,1,8.75,11,100.75,100.75,0,0,1,11.26,21.77,118.13,118.13,0,0,1,5.9,22.52,147.78,147.78,0,0,1,1.67,17.71v1.14c0,.69,0,1.38.05,2.06,0,.15,0,.3,0,.44,0,.69,0,1.38,0,2.07,0,0-.11.09-.11.12a1.49,1.49,0,0,0,.09.3c0,.69,0,1.38,0,2.07,0,.16-.06.32-.1.48l0,1.28c0,.16,0,.31,0,.47-.28,12.27-2.39,24.28-5.29,36.45l2.67-.43,2.43-.41c.3,1.32.58,2.56.9,4l-5,1.13c.29.45.49.83.76,1.17a169.73,169.73,0,0,1,16.14,24.54,132.42,132.42,0,0,1,14.69,42.38,99.37,99.37,0,0,1,1.18,18.64c0,.93-.07,1.85-.11,2.78,0,0-.11.07-.11.1a2.29,2.29,0,0,0,.07.28c0,.24,0,.47,0,.7-.05.38-.11.76-.16,1.14a88.67,88.67,0,0,1-17.33,46.91,139,139,0,0,1-8.91,10.86,127.14,127.14,0,0,1-20.23,17.39,153.8,153.8,0,0,1-15.62,9.63,187.76,187.76,0,0,1-17.87,8.41,219.19,219.19,0,0,1-29.41,9.62c-2,.5-3.92.95-6.12,1.47,1.63,3.05,4.38,5.08,6.07,7.9a9.16,9.16,0,0,1-3.75,3.17c-2.17-2.63-4.34-5.3-6.55-7.93-1.65-2-1.66-1.84-4.17-1.45-7.1,1.1-14.2,2.2-21.32,3.12-4.29.55-8.62.76-12.93,1.12l-4,.28-.71.05c-2.17,0-4.35,0-6.52,0a3.87,3.87,0,0,0-1,.27l-2.12.08q-8.31,0-16.61,0a3.08,3.08,0,0,0-.94.32l-2.41-.36a9.32,9.32,0,0,0-5.05,0l-3.52-.32-4.66-.31c-.55.22-1.11.4-1.63.67-6,3.12-11.94,6.37-18,9.36-5.85,2.88-11.77,5.67-17.79,8.18-6.84,2.86-13.79,5.5-20.77,8a254.69,254.69,0,0,1-29.05,8.46c-1.44.33-2.88.71-4.34,1a1.76,1.76,0,0,0-1.64,1.53c-.84,3.28-1.77,6.53-2.67,9.79-.12.45-.28.89-.48,1.5l-3.93-1.12,2.75-10.29c-.89.09-1.56.13-2.23.23q-8.48,1.15-16.93,2.34l-3.92.35h0l-4.64.33-1.75.05c-2.6,0-5.19,0-7.78,0a5.51,5.51,0,0,0-1.16.3l-3.18,0a2.89,2.89,0,0,0-.81-.28c-2.6,0-5.19,0-7.78,0a153.22,153.22,0,0,1-24.87-3.23,132.56,132.56,0,0,1-27.34-8.88,102.83,102.83,0,0,1-25.39-16.18,93.94,93.94,0,0,1-15.78-17.81,102.47,102.47,0,0,1-11.17-21.61,115.61,115.61,0,0,1-6-23.22,122.74,122.74,0,0,1-1.55-19.15c0-.77-.06-1.54-.09-2.31,0-.13,0-.27,0-.4.06-2.41.07-4.81.19-7.22a174.36,174.36,0,0,1,5.05-33.76c.88-3.53,1-3.55-1.3-6.34a163,163,0,0,1-14.2-20.92,142.34,142.34,0,0,1-12.76-28.75,107.27,107.27,0,0,1-4.69-22.27c-.21-2.31-.33-4.62-.48-6.93C3915.12,2034,3915.09,2033.62,3915.05,2033.22Zm353.22-155.28-3.63-.26q-7.43,0-14.85,0a5.66,5.66,0,0,0-1.18.25h-1l-5.37.36c-2.17.23-4.36.39-6.52.71-5.93.86-11.84,1.81-17.77,2.67a1.78,1.78,0,0,0-1.61,1.59c-.76,2.92-1.58,5.83-2.39,8.75-.51,1.86-1.06,3.71-1.62,5.67l-3.95-1.09c.22-.85.41-1.53.59-2.21l3-11.16c-.5-.53-1-.38-1.48,0-5.34,1.41-10.7,2.71-16,4.24a295,295,0,0,0-28.88,10.14c-9.53,3.87-18.84,8.21-28,12.84-1.5.76-3,1.61-4.44,2.41a1,1,0,0,0,.71.4c6.24.74,12.51,1.36,18.73,2.26q17.44,2.54,34.63,6.54a403.69,403.69,0,0,1,49.24,14.71q15.44,5.72,30.35,12.68a366.14,366.14,0,0,1,41.37,22.55q8.48,5.4,16.67,11.2c4.36,3.08,8.57,6.37,12.75,9.69q5.16,4.1,10.09,8.47c3.69,3.26,7.34,6.58,10.85,10s6.74,7,10.1,10.55c.4.41.82.8,1.38,1.36.27-.95.51-1.67.68-2.41a153.87,153.87,0,0,0,3.26-19.43c.48-4.84.85-9.7,1-14.57a124.92,124.92,0,0,0-2.48-28.28,102.43,102.43,0,0,0-11.23-30.63,88,88,0,0,0-17.29-21.81,93.81,93.81,0,0,0-15.42-11.4,116.85,116.85,0,0,0-34.18-13.27,83.45,83.45,0,0,0-13-2.19c-2.58-.17-5.13-.68-7.7-1a6.14,6.14,0,0,0-1.31-.33c-1.34-.06-2.68,0-4-.06Zm-175.63,214.91a5,5,0,0,0,1.17.28q6.72,0,13.42,0a5.44,5.44,0,0,0,1.17-.25l4.22-.07h16.45a63.91,63.91,0,0,1,13.55,1.94c10.47,2.36,20.77,5.39,31,8.48q20.78,6.26,41.5,12.69,27.6,8.57,55.16,17.24,17.57,5.51,35.12,11.05a5.32,5.32,0,0,0,3,.15c2.54-.6,5.11-1,7.66-1.57,1.1-.22,2.18-.51,3.48-.81a9,9,0,0,0-.86-.5c-13.5-5.65-27-11.21-40.49-17-13.83-5.94-27.51-12.21-40.84-19.23a144.31,144.31,0,0,1-18.38-11.14,28.83,28.83,0,0,1-7.29-7.24,9.09,9.09,0,0,1-1.31-8,30.12,30.12,0,0,1,2.44-5.29c.94-1.71,2.15-3.27,3.14-5a3.94,3.94,0,0,0-.21-4.67,15.67,15.67,0,0,0-2.39-2.62,21,21,0,0,0-8.14-3.86c-4.52-1.24-9.08-2.32-13.57-3.64a32.24,32.24,0,0,1-10.75-5,31.48,31.48,0,0,1-8.72-11.13,106,106,0,0,1-6.72-17.22c-2.68-8.8-4.79-17.75-6.74-26.74-.69-3.17-1.51-6.32-2.12-9.52-.77-4.07-1.35-8.18-2.08-12.26-.82-4.61-1.77-9.19-2.57-13.8-.38-2.2-.51-4.44-.83-6.66-.8-5.4-1.64-10.8-2.47-16.19-.26-1.74-.55-3.48-.85-5.39l-17.16,3.48c-.29,3.42-.56,6.65-.84,9.89-.08.89-.15,1.77-.24,2.66-.28,2.65-.6,5.29-.82,7.94s-.35,5.45-.57,8.17c-.4,4.91-.84,9.82-1.26,14.73,0,0-.11.08-.11.12a1.09,1.09,0,0,0,.07.3l0,.61-.18,1.16,0,.69-.07,1.07,0,.66-.18,1.15-.15,2.43-.18,1.15,0,.64-.06.41c-.12.94-.24,1.88-.37,2.82l0,.75v.37s-.11.06-.11.08a1.13,1.13,0,0,0,.08.24l0,.69-.18,1.14,0,.63-.06.42-.08,1.38-.18,1.14,0,.63-.06.42c-.22,2.13-.41,4.26-.66,6.38-.37,3.36-.81,6.7-1.18,10.06-.54,4.94-1,9.89-1.58,14.83-.21,1.81-.65,3.6-.91,5.41-.51,3.52-.86,7.06-1.47,10.57a86.58,86.58,0,0,1-3.87,15.5c-2,5.24-5.2,9.24-10.44,11.52-3.91,1.71-7.81,3.47-11.66,5.32-4,1.93-8,3.94-11.91,6a18.84,18.84,0,0,0-3.86,2.84c-1.46,1.36-1.27,2.58.46,3.52a16.81,16.81,0,0,0,3.6,1.47A49.83,49.83,0,0,0,4092.64,2092.85Zm310.64,21a97.26,97.26,0,0,0-1.29-14.36,126.1,126.1,0,0,0-13.09-38.25,172.63,172.63,0,0,0-15.31-23.82,9.36,9.36,0,0,0-.83-.81c-.25.65-.47,1.11-.62,1.6a249.47,249.47,0,0,1-13.31,33.33,309.18,309.18,0,0,1-18,32.25,322.16,322.16,0,0,1-21.05,29.54c-.65.79-1.22,1.65-1.91,2.59l18,7.36a29.48,29.48,0,0,1-5.2,1.43c-7.68,1.58-15.34,3.21-23,4.7a4.33,4.33,0,0,0-2.54,1.39c-3.58,3.89-7.05,7.88-10.77,11.62-6.08,6.11-12.19,12.19-18.52,18-7.79,7.16-16,13.88-24.34,20.35-11.34,8.77-23.19,16.81-35.31,24.44-1.05.66-2.11,1.28-3.16,1.92a17.81,17.81,0,0,0,5.28.59,6.49,6.49,0,0,0,1.35.28q8.4,0,16.8,0a8.88,8.88,0,0,0,1.52-.3l1.75,0,6.47-.31,1.73-.07,4-.3c3.67-.33,7.35-.57,11-1,6.3-.8,12.58-1.73,18.87-2.63a7.62,7.62,0,0,0,1.32-.45l-6.24-7.61,3.82-3.2,8.17,9.78a6.07,6.07,0,0,0,.65-.06,211.54,211.54,0,0,0,37.26-11.32,166,166,0,0,0,26.75-13.74,136.56,136.56,0,0,0,17.67-13.24,109.15,109.15,0,0,0,13-13.7,90.28,90.28,0,0,0,13.37-23,86.28,86.28,0,0,0,5.78-28.29s.11-.08.11-.11a2.29,2.29,0,0,0-.09-.28l0-2.11s.1-.08.1-.11a2.29,2.29,0,0,0-.07-.28c0-.23,0-.46,0-.69S4403.28,2114.24,4403.28,2113.87ZM4064.45,1919c-2,.23-4,.47-6,.69a208.9,208.9,0,0,0-22,3.54c-6.25,1.38-12.46,3-18.65,4.65a172.36,172.36,0,0,0-22.48,7.94,180.24,180.24,0,0,0-20.36,10.24,136,136,0,0,0-19.75,14,115.38,115.38,0,0,0-10.35,10,95.15,95.15,0,0,0-13.06,17.92,83.06,83.06,0,0,0-9.89,29.15,92.8,92.8,0,0,0-.16,25.19,115.44,115.44,0,0,0,4.81,21,146.15,146.15,0,0,0,10.44,23.77,193.75,193.75,0,0,0,13.12,20.15c.39.54.83,1,1.38,1.7.25-.77.41-1.22.55-1.67a239.53,239.53,0,0,1,9.56-25.26,296.11,296.11,0,0,1,21.49-39.88q5.85-9.12,12.18-17.94c3.65-5.11,7.55-10.06,11.46-15,3.48-4.36,7.09-8.61,10.72-12.85,2.12-2.48,4.38-4.84,6.6-7.23,2.59-2.78,5.19-5.55,7.82-8.28q3-3.15,6.16-6.19c2.48-2.39,5-4.75,7.53-7.06,3.65-3.32,7.35-6.57,11-9.85,1.36-1.21,2.73-2.42,4.17-3.68l-13.49-16.39,3.88-3.13c4.61,5.55,9.06,10.92,13.52,16.28,4.24-3.27,8.21-6.49,12.35-9.47q10.69-7.71,21.59-15.16c4-2.75,8.19-5.26,12.3-7.88l.73-.35-.05-.36h-7.54l-.69-.08h-1.08a5.36,5.36,0,0,0-1.15-.28c-3.52,0-7,0-10.57,0a5,5,0,0,0-1.15.29l-1.77,0c-2.41,0-4.83,0-7.25,0a3.76,3.76,0,0,0-1,.29l-11.05.73Zm5.36,348.67,6.48-.3,2.44,0,4-.33a216.07,216.07,0,0,0,24.91-3.63c1.39-5,2.76-9.91,4.17-15l4,1.12c-1.16,4.29-2.28,8.47-3.46,12.86a281.44,281.44,0,0,0,40.61-12.32c14.78-5.63,36.78-16,38.17-17.93-3-.32-6.05-.54-9-1-8.45-1.23-16.91-2.45-25.34-3.87-10.71-1.8-21.27-4.27-31.77-7q-16.36-4.32-32.3-10-16.18-5.76-31.81-12.89a346.79,346.79,0,0,1-38.52-20.33c-6.91-4.25-13.68-8.75-20.4-13.31-4.26-2.89-8.39-6-12.43-9.19q-7.51-6-14.76-12.3c-3.48-3-6.79-6.3-10.07-9.56-2.82-2.8-5.5-5.74-8.24-8.62l-2.07-2.14c-.23.82-.38,1.33-.51,1.85a174.34,174.34,0,0,0-3.82,23.7c-.28,2.93-.36,5.88-.52,8.83l0,.44,0,.63-.1,1.17,0,1.31,0,1.19,0,1.31,0,1.17.05,1.34,0,.79c.36,4.38.62,8.76,1.1,13.12a103,103,0,0,0,4.67,20.8,96,96,0,0,0,9.71,20.94,87.43,87.43,0,0,0,16.29,19.46,96.25,96.25,0,0,0,19.63,13.37,127.43,127.43,0,0,0,40.37,12.58l2.18.32,13.13,1.15,4.37.24.66,0h8.22ZM4183,2225.22l2.89.33,4.23.42,2.9.31,5.3.4a4.5,4.5,0,0,0,3.63,0c8-4.57,15.81-9.46,23.49-14.55,9.57-6.34,18.77-13.19,27.8-20.27.82-.65,1.58-1.38,2.44-2.14-5.75-7-11.38-13.76-17.08-20.67l3.81-3.27,17.24,20.81a383.17,383.17,0,0,0,40.3-39c-.86-.32-1.44-.57-2-.76q-39.66-12.42-79.33-24.82c-14.72-4.59-29.49-9.05-44.24-13.56-9.93-3-19.89-5.93-30-8.37a80.71,80.71,0,0,0-18.28-2.67c-2.56,0-5.11,0-7.67,0-3.6,0-7.2,0-10.81.05a4.09,4.09,0,0,0-1,.28h-10.71l-.66,0a4.56,4.56,0,0,0-1-.27c-1.7,0-3.4,0-5.1,0-2.24-.27-4.5-.44-6.71-.85a17.64,17.64,0,0,1-8.18-3.29c-3-2.41-3.76-5.4-1.68-8.62a13.06,13.06,0,0,1,2.79-3c4.69-3.75,10.16-6.1,15.57-8.55,4.05-1.84,8.12-3.64,12.15-5.53a12.55,12.55,0,0,0,6.53-6.28,45.69,45.69,0,0,0,2-5.13c2.42-8,3.58-16.33,4.66-24.63.73-5.52,1.35-11,2-16.58.7-6.3,1.34-12.61,2-18.91,0,0,.12-.08.11-.11a1.57,1.57,0,0,0-.05-.3l0-.63.14-.46c.15-1.89.3-3.79.47-5.68q.59-6.54,1.18-13.1c.44-4.9.9-9.79,1.35-14.69,0,0,.12-.08.11-.12a1,1,0,0,0-.07-.29l0-.65.2-1.14c.82-9.81,1.64-19.62,2.46-29.52,8.65-1.72,17.08-3.6,25.64-5.18.17.74.32,1.24.39,1.76.38,2.47.72,4.94,1.09,7.41,1.24,8.2,2.39,16.42,3.76,24.61,1.5,9,3.16,17.88,4.84,26.81,2,10.73,4.49,21.38,7.53,31.88a101.53,101.53,0,0,0,7.43,19.43c1.95,3.69,4.28,7.13,7.89,9.48a30.57,30.57,0,0,0,8.48,3.62c4.28,1.22,8.6,2.29,12.9,3.44a26.73,26.73,0,0,1,11.19,5.61,2.37,2.37,0,0,0,2.27.57q14.91-3.08,29.81-6.1c.39-.08.79-.12,1.27-.19.29,1.36.55,2.61.84,4l-30.51,6.25c.27,2.77.72,5.3-.55,7.68-.64,1.2-1.42,2.32-2.1,3.5-1,1.79-2.1,3.57-3.05,5.4a4.69,4.69,0,0,0,.6,5,7.14,7.14,0,0,0,1.11,1.39,50.87,50.87,0,0,0,5.62,4.89c4.28,2.86,8.65,5.62,13.15,8.13,9.89,5.53,20.1,10.44,30.47,15,13.62,6,27.32,11.84,41,17.74,1.57.67,3.17,1.27,4.81,1.92,1-1.26,1.89-2.42,2.77-3.6,4.81-6.47,9.76-12.85,14.38-19.45a297.59,297.59,0,0,0,17.46-28.31,261.94,261.94,0,0,0,18.62-42.08c.75-2.22,1.42-4.47,2.23-7-6.4,1-12.35,2.51-18.52,3.58-.28-1.42-.81-2.67-.63-4.09l18.05-3.69a3.83,3.83,0,0,0-.33-.62c-3.8-4.08-7.51-8.27-11.44-12.22-3.39-3.4-7-6.55-10.58-9.79a236,236,0,0,0-19.52-15.77q-11.61-8.54-23.93-16-12.77-7.79-26.11-14.51-16.21-8.16-33.13-14.77-17.67-6.93-35.9-12.13c-.79-.23-1.59-.38-2.59-.61-2.7,9.83-5.37,19.51-8.06,29.29l-4-1.14,8-29.19a6.56,6.56,0,0,0-1-.48c-7.8-1.82-15.56-3.85-23.41-5.39-8.66-1.7-17.4-3-26.11-4.4-2.17-.35-4.37-.44-6.55-.69-3-.35-6-.81-9-1.11s-5.81-.36-8.7-.7a3.28,3.28,0,0,0-2.27.51c-2.49,1.5-5,2.93-7.51,4.45-4.25,2.61-8.52,5.2-12.7,7.92-8.83,5.74-17.35,11.91-25.7,18.32-2.39,1.84-4.71,3.79-7.08,5.7l1.51,2.18-4,3.31-1.55-2.16c-1.27,1.05-2.39,1.92-3.46,2.87-3.47,3.07-7,6.11-10.36,9.26-4.39,4.08-8.75,8.21-13,12.42-2.83,2.79-5.52,5.73-8.21,8.66-3.65,4-7.33,8-10.82,12.06-3.88,4.57-7.59,9.28-11.34,14-5.34,6.67-10.27,13.65-15,20.75q-7.32,11-13.71,22.46a254.77,254.77,0,0,0-15.8,33.41c-2.3,6.09-4.23,12.33-6.35,18.49a2.1,2.1,0,0,0,.35,2.44c3.19,3.44,6.19,7.06,9.5,10.38,4.31,4.33,8.81,8.48,13.31,12.63a237.85,237.85,0,0,0,21.33,17.19,331.13,331.13,0,0,0,31.68,20.42,391,391,0,0,0,86.8,36.26c.6.17,1.21.29,1.92.46,2.64-9.61,5.23-19,7.85-28.51l3,.82.93.44-.07.55-.14.41c-1.12,4.12-2.23,8.24-3.36,12.35-1.35,5-2.72,9.94-4.12,15,.55.18,1,.37,1.54.5l9,2.25c9.75,2.38,19.58,4.32,29.49,5.9C4171.31,2223.65,4177.14,2224.39,4183,2225.22Z" transform="translate(-223.86 -1864.67)" style="fill: #5a8ab2"/>
      <path d="M4028.18,1914.55l-3.7-4.33,3.9-3.22,3.75,4.41Z" transform="translate(-223.86 -1864.67)" style="fill: #5d8cb4"/>
      <path d="M4218.94,2234.1a3.08,3.08,0,0,1,.94-.32q8.31,0,16.61,0a5.82,5.82,0,0,1-1.33.31C4229.75,2234.14,4224.34,2234.12,4218.94,2234.1Z" transform="translate(-223.86 -1864.67)" style="fill: #c9f5f8"/>
      <path d="M4260.77,1871.84l-11.45.06a7,7,0,0,1,1.17-.25c3.42,0,6.84-.05,10.26-.07C4260.76,1871.67,4260.76,1871.76,4260.77,1871.84Z" transform="translate(-223.86 -1864.67)" style="fill: #afa9c7"/>
      <path d="M4067.32,2273.74a5.51,5.51,0,0,1,1.16-.3c2.59,0,5.18,0,7.78,0a6.68,6.68,0,0,1-1.36.27C4072.38,2273.72,4069.85,2273.72,4067.32,2273.74Z" transform="translate(-223.86 -1864.67)" style="fill: #85c3d8"/>
      <path d="M4055.55,2273.4c2.59,0,5.18,0,7.78,0a2.89,2.89,0,0,1,.81.28c-2.65,0-5.3,0-7.94-.08A2.33,2.33,0,0,1,4055.55,2273.4Z" transform="translate(-223.86 -1864.67)" style="fill: #8bc7da"/>
      <path d="M4088.05,1911.55a11.36,11.36,0,0,1-1.7.28c-1.95,0-3.89,0-5.83,0a3.92,3.92,0,0,1,1-.29C4083.68,1911.55,4085.86,1911.55,4088.05,1911.55Z" transform="translate(-223.86 -1864.67)" style="fill: #bdb5cf"/>
      <path d="M4238.61,2233.74a3.87,3.87,0,0,1,1-.27c2.17,0,4.35,0,6.52,0-1,.1-2.07.27-3.11.3C4241.54,2233.78,4240.07,2233.74,4238.61,2233.74Z" transform="translate(-223.86 -1864.67)" style="fill: #8bc7da"/>
      <path d="M4113,1911.85l-7.19-.29c2.12,0,4.25,0,6.38,0A2.89,2.89,0,0,1,4113,1911.85Z" transform="translate(-223.86 -1864.67)" style="fill: #cac0d5"/>
      <path d="M4260.77,1871.84c0-.08,0-.17,0-.26,1.41,0,2.81,0,4.22,0a4.88,4.88,0,0,1,1.15.3Z" transform="translate(-223.86 -1864.67)" style="fill: #bdb5cf"/>
      <path d="M4211.48,2233.7a9.32,9.32,0,0,1,5.05,0Z" transform="translate(-223.86 -1864.67)" style="fill: #8bc7da"/>
      <path d="M4272.91,1872.25l-4.67-.34Z" transform="translate(-223.86 -1864.67)" style="fill: #cac0d5"/>
      <path d="M4078,2273.35l4.64-.33Z" transform="translate(-223.86 -1864.67)" style="fill: #8bc7da"/>
      <path d="M4203.3,2233.07l4.66.31Z" transform="translate(-223.86 -1864.67)" style="fill: #8bc7da"/>
      <path d="M4082.66,2273l3.92-.35Z" transform="translate(-223.86 -1864.67)" style="fill: #8bc7da"/>
      <path d="M4246.82,2233.37l4-.28Z" transform="translate(-223.86 -1864.67)" style="fill: #85c3d8"/>
      <path d="M4380.88,1981.16v0Z" transform="translate(-223.86 -1864.67)" style="fill: #a1bdd3"/>
      <path d="M4408.92,2122.87c.05-.38.11-.76.16-1.14C4409,2122.11,4409,2122.49,4408.92,2122.87Z" transform="translate(-223.86 -1864.67)" style="fill: #8aacc9"/>
      <path d="M3915.05,2033.22c0,.4.07.8.11,1.2C3915.12,2034,3915.09,2033.62,3915.05,2033.22Z" transform="translate(-223.86 -1864.67)" style="fill: #8aacc9"/>
      <path d="M4380.74,1990.45c0-.16,0-.31,0-.47C4380.77,1990.14,4380.75,1990.29,4380.74,1990.45Z" transform="translate(-223.86 -1864.67)" style="fill: #a1bdd3"/>
      <path d="M4409.09,2121a2.29,2.29,0,0,1-.07-.28s.07-.07.11-.1C4409.12,2120.78,4409.11,2120.9,4409.09,2121Z" transform="translate(-223.86 -1864.67)" style="fill: #8aacc9"/>
      <path d="M3915.24,2024.59l-.06.54Z" transform="translate(-223.86 -1864.67)" style="fill: #8aacc9"/>
      <path d="M3943.35,2160.61c0,.13,0,.27,0,.4a1.61,1.61,0,0,1-.09-.29S3943.31,2160.65,3943.35,2160.61Z" transform="translate(-223.86 -1864.67)" style="fill: #ccdae7"/>
      <path d="M3915.2,2025.62c0,.16-.1.32-.14.48C3915.1,2025.94,3915.15,2025.78,3915.2,2025.62Z" transform="translate(-223.86 -1864.67)" style="fill: #8aacc9"/>
      <path d="M4380.81,1988.7c0-.16.07-.32.1-.48C4380.88,1988.38,4380.84,1988.54,4380.81,1988.7Z" transform="translate(-223.86 -1864.67)" style="fill: #a1bdd3"/>
      <path d="M3915,2028.22a1.43,1.43,0,0,1,.09.27s-.07.07-.11.11Z" transform="translate(-223.86 -1864.67)" style="fill: #8aacc9"/>
      <path d="M4380.91,1983.66c0-.14,0-.29,0-.44C4380.93,1983.37,4380.92,1983.52,4380.91,1983.66Z" transform="translate(-223.86 -1864.67)" style="fill: #a1bdd3"/>
      <path d="M4380.93,1986.15a1.49,1.49,0,0,1-.09-.3s.07-.08.11-.12C4381,1985.87,4380.94,1986,4380.93,1986.15Z" transform="translate(-223.86 -1864.67)" style="fill: #a1bdd3"/>
      <path d="M4126.9,1976.82c.42-4.91.86-9.82,1.26-14.73.22-2.72.33-5.45.57-8.17s.54-5.29.82-7.94c.09-.89.16-1.77.24-2.66.28-3.24.55-6.47.84-9.89l17.16-3.48c.3,1.91.59,3.65.85,5.39.83,5.39,1.67,10.79,2.47,16.19.32,2.22.45,4.46.83,6.66.8,4.61,1.75,9.19,2.57,13.8.73,4.08,1.31,8.19,2.08,12.26.61,3.2,1.43,6.35,2.12,9.52,1.95,9,4.06,17.94,6.74,26.74a106,106,0,0,0,6.72,17.22,31.48,31.48,0,0,0,8.72,11.13,32.24,32.24,0,0,0,10.75,5c4.49,1.32,9,2.4,13.57,3.64a21,21,0,0,1,8.14,3.86,15.67,15.67,0,0,1,2.39,2.62,3.94,3.94,0,0,1,.21,4.67c-1,1.69-2.2,3.25-3.14,5a30.12,30.12,0,0,0-2.44,5.29,9.09,9.09,0,0,0,1.31,8,28.83,28.83,0,0,0,7.29,7.24,144.31,144.31,0,0,0,18.38,11.14c13.33,7,27,13.29,40.84,19.23,13.45,5.78,27,11.34,40.49,17a9,9,0,0,1,.86.5c-1.3.3-2.38.59-3.48.81-2.55.53-5.12,1-7.66,1.57a5.32,5.32,0,0,1-3-.15q-17.55-5.55-35.12-11.05-27.57-8.64-55.16-17.24-20.73-6.43-41.5-12.69c-10.27-3.09-20.57-6.12-31-8.48a63.91,63.91,0,0,0-13.55-1.94,7.49,7.49,0,0,0-1.52-.32q-6.87,0-13.73.07a7.29,7.29,0,0,0-1.2.24l-4.22.07-15.76,0a49.83,49.83,0,0,1-11.27-1.47,16.81,16.81,0,0,1-3.6-1.47c-1.73-.94-1.92-2.16-.46-3.52a18.84,18.84,0,0,1,3.86-2.84c3.92-2.1,7.9-4.11,11.91-6,3.85-1.85,7.75-3.61,11.66-5.32,5.24-2.28,8.49-6.28,10.44-11.52a86.58,86.58,0,0,0,3.87-15.5c.61-3.51,1-7.05,1.47-10.57.26-1.81.7-3.6.91-5.41.57-4.94,1-9.89,1.58-14.83.37-3.36.81-6.7,1.18-10.06.25-2.12.44-4.25.66-6.38,0,0,.11-.08.11-.12a1.57,1.57,0,0,0-.05-.3l0-.63.18-1.14c0-.46.05-.92.08-1.38,0,0,.12-.08.12-.12s0-.2-.06-.3l0-.63.18-1.14,0-.69a.31.31,0,0,0,0-.32v-.37c0-.25,0-.5,0-.75.13-.94.25-1.88.37-2.82,0,0,.12-.08.12-.11s0-.2-.06-.3l0-.64.18-1.15.15-2.43.18-1.15,0-.66.07-1.07c0-.23,0-.46,0-.69l.18-1.16,0-.61C4126.87,1977.1,4126.89,1977,4126.9,1976.82Z" transform="translate(-223.86 -1864.67)" style="fill: #fe7f01"/>
      <path d="M4218.26,2227.76l17.19-.06c.83,0,1.65,0,2.48,0a8.88,8.88,0,0,1-1.52.3q-8.4,0-16.8,0A6.49,6.49,0,0,1,4218.26,2227.76Z" transform="translate(-223.86 -1864.67)" style="fill: #afa9c7"/>
      <path d="M4112.62,2092.8a7.29,7.29,0,0,1,1.2-.24q6.87-.06,13.73-.07a7.49,7.49,0,0,1,1.52.32Z" transform="translate(-223.86 -1864.67)" style="fill: #b88575"/>
      <path d="M4264.71,1878l-16.1,0a5.66,5.66,0,0,1,1.18-.25q7.43,0,14.85,0A2.68,2.68,0,0,1,4264.71,1878Z" transform="translate(-223.86 -1864.67)" style="fill: #bfeff4"/>
      <path d="M4092.64,2092.85l15.76,0a5.44,5.44,0,0,1-1.17.25q-6.7,0-13.42,0A5,5,0,0,1,4092.64,2092.85Z" transform="translate(-223.86 -1864.67)" style="fill: #b88575"/>
      <path d="M4102.31,1917.53l-12.87,0a5,5,0,0,1,1.15-.29c3.52,0,7.05,0,10.57,0A5.36,5.36,0,0,1,4102.31,1917.53Z" transform="translate(-223.86 -1864.67)" style="fill: #79b7d0"/>
      <path d="M4118.36,2097.45a2.86,2.86,0,0,1-.82.25c-3.66,0-7.32.06-11,.08a4.09,4.09,0,0,1,1-.28C4111.16,2097.47,4114.76,2097.47,4118.36,2097.45Z" transform="translate(-223.86 -1864.67)" style="fill: #8fcbdd"/>
      <path d="M4110.94,1918.34a9.79,9.79,0,0,0-1.65-.37c-1.29-.06-2.59,0-3.88,0a8.14,8.14,0,0,1-1.33-.29h7.54l.05.36Z" transform="translate(-223.86 -1864.67)" style="fill: #bfeff4"/>
      <path d="M4087.67,1917.6a17.84,17.84,0,0,1-2.06.26c-2.05.05-4.11.05-6.17.07a3.76,3.76,0,0,1,1-.29C4082.84,1917.6,4085.26,1917.6,4087.67,1917.6Z" transform="translate(-223.86 -1864.67)" style="fill: #8fcbdd"/>
      <path d="M4239.68,2227.7c.8-.11,1.6-.28,2.4-.31,1.36,0,2.71,0,4.07,0Z" transform="translate(-223.86 -1864.67)" style="fill: #cac0d5"/>
      <path d="M4069.81,2267.67c.8-.1,1.6-.27,2.41-.3,1.35,0,2.71,0,4.07,0Z" transform="translate(-223.86 -1864.67)" style="fill: #cac0d5"/>
      <path d="M4095.19,2097.76l-6.09-.3c1.7,0,3.4,0,5.1,0A4.56,4.56,0,0,1,4095.19,2097.76Z" transform="translate(-223.86 -1864.67)" style="fill: #85c3d8"/>
      <path d="M4247.56,1878l-5.37.36Z" transform="translate(-223.86 -1864.67)" style="fill: #8fcbdd"/>
      <path d="M4273.61,1878.34l-5.33-.39c1.34,0,2.68,0,4,.06A6.14,6.14,0,0,1,4273.61,1878.34Z" transform="translate(-223.86 -1864.67)" style="fill: #8fcbdd"/>
      <path d="M4056.56,2267.4l4.37.24Z" transform="translate(-223.86 -1864.67)" style="fill: #cac0d5"/>
      <path d="M4068.39,1918.66l-3.94.34Z" transform="translate(-223.86 -1864.67)" style="fill: #8bc7da"/>
      <path d="M4078.73,2267.32l4-.33Z" transform="translate(-223.86 -1864.67)" style="fill: #bdb5cf"/>
      <path d="M4247.88,2227.32l4-.3Z" transform="translate(-223.86 -1864.67)" style="fill: #cac0d5"/>
      <path d="M4264.71,1878a2.68,2.68,0,0,0-.07-.27l3.63.26Z" transform="translate(-223.86 -1864.67)" style="fill: #85c3d8"/>
      <path d="M4198.27,2226.68h3.63A4.5,4.5,0,0,1,4198.27,2226.68Z" transform="translate(-223.86 -1864.67)" style="fill: #cac0d5"/>
      <path d="M4190.07,2226l2.9.31Z" transform="translate(-223.86 -1864.67)" style="fill: #bdb5cf"/>
      <path d="M4183,2225.22l2.89.33Z" transform="translate(-223.86 -1864.67)" style="fill: #bdb5cf"/>
      <path d="M4126.6,1979.7l-.07,1.07Z" transform="translate(-223.86 -1864.67)" style="fill: #b3834b"/>
      <path d="M4041.25,2265.93l2.18.32Z" transform="translate(-223.86 -1864.67)" style="fill: #cac0d5"/>
      <path d="M4211.89,1883.27l-1.48,0C4210.9,1882.89,4211.39,1882.74,4211.89,1883.27Z" transform="translate(-223.86 -1864.67)" style="fill: #8fcbdd"/>
      <path d="M4125.47,1992.16l-.18,1.14Z" transform="translate(-223.86 -1864.67)" style="fill: #b3834b"/>
      <path d="M4123.47,1960.1c.07-.38.13-.76.2-1.14C4123.6,1959.34,4123.54,1959.72,4123.47,1960.1Z" transform="translate(-223.86 -1864.67)" style="fill: #a1bdd3"/>
      <path d="M4126.83,1977.85l-.18,1.16Z" transform="translate(-223.86 -1864.67)" style="fill: #b3834b"/>
      <path d="M4126.49,1981.43l-.18,1.15Z" transform="translate(-223.86 -1864.67)" style="fill: #b3834b"/>
      <path d="M4126.16,1985l-.18,1.15Z" transform="translate(-223.86 -1864.67)" style="fill: #b3834b"/>
      <path d="M4125.12,1995.73l-.18,1.14Z" transform="translate(-223.86 -1864.67)" style="fill: #b3834b"/>
      <path d="M4403.29,2115c0-.36,0-.72,0-1.09C4403.28,2114.24,4403.29,2114.6,4403.29,2115Z" transform="translate(-223.86 -1864.67)" style="fill: #8aacc9"/>
      <path d="M3949.45,2157.38c0,.39-.06.78-.1,1.17C3949.39,2158.16,3949.42,2157.77,3949.45,2157.38Z" transform="translate(-223.86 -1864.67)" style="fill: #a6c0d6"/>
      <path d="M3949.33,2159.86c0,.4,0,.79,0,1.19C3949.32,2160.65,3949.32,2160.26,3949.33,2159.86Z" transform="translate(-223.86 -1864.67)" style="fill: #a6c0d6"/>
      <path d="M3949.34,2162.36l.06,1.17Z" transform="translate(-223.86 -1864.67)" style="fill: #a6c0d6"/>
      <path d="M4132.27,2185.28l.93.44Z" transform="translate(-223.86 -1864.67)" style="fill: #a6c0d6"/>
      <path d="M3949.44,2164.87c0,.26,0,.53,0,.79C3949.46,2165.4,3949.45,2165.13,3949.44,2164.87Z" transform="translate(-223.86 -1864.67)" style="fill: #a6c0d6"/>
      <path d="M4125.52,1990c0,.25,0,.5,0,.75Z" transform="translate(-223.86 -1864.67)" style="fill: #b3834b"/>
      <path d="M4103.39,1917.55h0Z" transform="translate(-223.86 -1864.67)" style="fill: #79b7d0"/>
      <path d="M3949.46,2156.31l0,.44Z" transform="translate(-223.86 -1864.67)" style="fill: #a6c0d6"/>
      <path d="M4125.26,1993.93c0,.1.05.2.06.3s-.08.08-.12.12Z" transform="translate(-223.86 -1864.67)" style="fill: #b3834b"/>
      <path d="M4120.27,1995.09c0-.15.09-.31.14-.46C4120.36,1994.78,4120.31,1994.94,4120.27,1995.09Z" transform="translate(-223.86 -1864.67)" style="fill: #a6c0d6"/>
      <path d="M4403.24,2118.54c0-.13,0-.26,0-.39a2.29,2.29,0,0,1,.09.28S4403.28,2118.5,4403.24,2118.54Z" transform="translate(-223.86 -1864.67)" style="fill: #8aacc9"/>
      <path d="M4403.28,2116l0-.39a2.29,2.29,0,0,1,.07.28S4403.32,2116,4403.28,2116Z" transform="translate(-223.86 -1864.67)" style="fill: #8aacc9"/>
      <path d="M4120.18,1996.13l.06-.41a1.57,1.57,0,0,1,.05.3S4120.22,1996.09,4120.18,1996.13Z" transform="translate(-223.86 -1864.67)" style="fill: #a6c0d6"/>
      <path d="M4124.91,1997.5a1.57,1.57,0,0,1,.05.3s-.07.08-.11.12Z" transform="translate(-223.86 -1864.67)" style="fill: #b3834b"/>
      <path d="M4096.26,2097.79h0Z" transform="translate(-223.86 -1864.67)" style="fill: #85c3d8"/>
      <path d="M4125.53,1991.15a.31.31,0,0,1,0,.32,1.13,1.13,0,0,1-.08-.24S4125.5,1991.18,4125.53,1991.15Z" transform="translate(-223.86 -1864.67)" style="fill: #b3834b"/>
      <path d="M4061.59,2267.66h0Z" transform="translate(-223.86 -1864.67)" style="fill: #cac0d5"/>
      <path d="M4126,1986.8c0,.1.05.2.06.3s-.08.07-.12.11Z" transform="translate(-223.86 -1864.67)" style="fill: #b3834b"/>
      <path d="M4126.9,1976.82c0,.14,0,.28,0,.42a1.09,1.09,0,0,1-.07-.3S4126.86,1976.86,4126.9,1976.82Z" transform="translate(-223.86 -1864.67)" style="fill: #b3834b"/>
      <path d="M4123.41,1961.16c0-.14,0-.28,0-.41a1,1,0,0,1,.07.29S4123.45,1961.12,4123.41,1961.16Z" transform="translate(-223.86 -1864.67)" style="fill: #a1bdd3"/>
      <path d="M4133.13,2186.27l-.14.41Z" transform="translate(-223.86 -1864.67)" style="fill: #a6c0d6"/>
      <path d="M4204.14,2119.55l19.11,23.1-3.84,3.25c-6.37-7.7-12.69-15.32-19.15-23.14Z" transform="translate(-223.86 -1864.67)" style="fill: #5c8bb3"/>
      <path d="M4085.56,1984l3.82-3.29,19.15,23.13-3.8,3.31Z" transform="translate(-223.86 -1864.67)" style="fill: #5b8bb3"/>
      <path d="M4056.43,2096.41,4024,2103c-.3-1.42-.54-2.62-.84-4,10.79-2.32,21.52-4.46,32.41-6.66.18.69.35,1.29.47,1.9S4056.27,2095.49,4056.43,2096.41Z" transform="translate(-223.86 -1864.67)" style="fill: #5c8bb3"/>
      <path d="M4146.85,2120.51l4,1.09-8.79,32-4-1.1C4141,2141.78,4143.9,2131.25,4146.85,2120.51Z" transform="translate(-223.86 -1864.67)" style="fill: #5c8cb3"/>
      <path d="M3990.69,2105.55l.8,4.11-32.47,6.63c-.29-1.37-.56-2.66-.86-4.11Z" transform="translate(-223.86 -1864.67)" style="fill: #5c8bb3"/>
      <path d="M4315.6,2039.23c.3,1.44.54,2.64.83,4.06-10.78,2.34-21.51,4.41-32.29,6.65a10.08,10.08,0,0,1-.94-4.09Z" transform="translate(-223.86 -1864.67)" style="fill: #5c8bb3"/>
      <path d="M4177.21,2025.69l-4-1.15,8.75-31.92c.76.18,1.38.32,2,.49s1.22.36,2,.61C4183.05,2004.41,4180.16,2015,4177.21,2025.69Z" transform="translate(-223.86 -1864.67)" style="fill: #5c8bb3"/>
    </g>
  </g>
  <g id="Livello_14" data-name="Livello 14">
    <g>
      <path d="M2560.35,3258.93H2507.7l96-169.43c10.13-17.79,28.76-24.56,57.52-24.56,28.35,0,47,6.77,56.7,24.56l92.35,169.43H2757.2l-83-153.33c-2.43-4.52-6.89-6.5-13.37-6.5s-10.93,2-13.77,6.5Z" transform="translate(-223.86 -1864.67)" style="fill: #5872c9"/>
      <path d="M2975.52,3109.83c50.63,0,72.1,17,72.1,45.75,0,27.39-19.85,42.92-72.5,42.92H2873.45v10.73c0,11.86,9.31,20.61,32.81,20.61h130.83v29.09H2906.26c-53.47,0-74.53-20.9-74.53-49.13V3159c0-28.24,21.06-49.14,74.53-49.14Zm-102.07,65.23H2973.9c23.09,0,31.59-6.77,31.59-17.79,0-11.29-9.31-18.63-30.37-18.63h-68.86c-23.5,0-32.81,9-32.81,20.61Z" transform="translate(-223.86 -1864.67)" style="fill: #5872c9"/>
      <path d="M3245.68,3109.83v28.81h-75.34c-19,0-27.54,6.21-27.54,19.2v101.09h-42.94V3153.32c0-29.93,15.8-43.49,57.93-43.49Z" transform="translate(-223.86 -1864.67)" style="fill: #5872c9"/>
      <path d="M3415.39,3109.83c56.71,0,92.76,24.29,92.76,74.55s-36.05,74.55-92.76,74.55h-45c-57.11,0-92.75-24.28-92.75-74.55s35.64-74.55,92.75-74.55Zm-40.91,28.81c-37.26,0-53.46,13.55-53.46,45.74s16.2,45.46,53.46,45.46h36.86c36.86,0,53.47-13.27,53.47-45.46s-16.61-45.74-53.47-45.74Z" transform="translate(-223.86 -1864.67)" style="fill: #5872c9"/>
      <path d="M3737.8,3109.83v28.81H3619.53c-19.85,0-28,5.64-28,16.94,0,10.45,6.48,16.09,30.38,16.09h50.22c59.14,0,74.13,18.92,74.13,42.08,0,26.54-19.85,45.18-70.07,45.18H3551.89v-29.09h124.35c19.84,0,27.94-4.8,27.94-16.37,0-11.86-8.91-16.66-30.38-16.66h-50.63c-59.13,0-73.71-20.62-73.71-43.49,0-26.83,19.84-43.49,69.66-43.49Z" transform="translate(-223.86 -1864.67)" style="fill: #5872c9"/>
      <path d="M3933.84,3109.83c56.71,0,92.35,24.29,92.35,74.55s-35.64,74.55-92.35,74.55h-94.78v59.86h-42.93V3173.65c0-42.92,27.13-63.82,78.58-63.82Zm-94.78,120h90.33c37.26,0,53.46-13.27,53.46-45.46s-16.2-45.74-53.46-45.74h-42.13c-34.83,0-48.2,10.73-48.2,36.42Z" transform="translate(-223.86 -1864.67)" style="fill: #5872c9"/>
      <path d="M4214.53,3109.83c53.47,0,74.53,20.9,74.53,49.14v70c0,21.46-8.1,29.93-44.15,29.93h-100c-50.63,0-71.7-17.23-71.7-45.46,0-27.11,19.45-42.93,72.1-42.93h101.67v-11.29c0-11.58-9.32-20.61-32.81-20.61h-128v-28.81Zm32.41,112.39v-28H4146.08c-22.68,0-30.78,6.5-30.78,17.51s8.5,18.07,30,18.07h89.92C4243.7,3229.84,4246.94,3227.59,4246.94,3222.22Z" transform="translate(-223.86 -1864.67)" style="fill: #5872c9"/>
      <path d="M4542.62,3109.83v28.81H4436.5c-37.27,0-53.47,13.55-53.47,45.74s16.2,45.46,53.47,45.46h106.12v29.09H4432.45c-57.12,0-92.76-24.28-92.76-74.55s35.64-74.55,92.76-74.55Z" transform="translate(-223.86 -1864.67)" style="fill: #5872c9"/>
      <path d="M4733,3109.83c50.63,0,72.1,17,72.1,45.75,0,27.39-19.85,42.92-72.5,42.92H4630.91v10.73c0,11.86,9.32,20.61,32.81,20.61h130.83v29.09H4663.72c-53.47,0-74.53-20.9-74.53-49.13V3159c0-28.24,21.06-49.14,74.53-49.14Zm-102.07,65.23h100.45c23.09,0,31.6-6.77,31.6-17.79,0-11.29-9.32-18.63-30.38-18.63h-68.86c-23.49,0-32.81,9-32.81,20.61Z" transform="translate(-223.86 -1864.67)" style="fill: #5872c9"/>
    </g>
  </g>
  <g id="A">
    <path d="M2283.72,2965.84H2114.16l242.35-692.92c29-73.15,80.41-107.28,162.85-107.28,81.28,0,136.46,36.7,162.56,105.17l242.64,695H2758.92l-208.8-591.22c-7-18.58-12.18-35.21-30.76-35.21s-22.13,16.45-30.26,35Z" transform="translate(-223.86 -1864.67)" style="fill: #5872c9"/>
  </g>
  <g id="Livello_10" data-name="Livello 10">
    <path d="M4854.92,2088.51c9.28-69.75-15.16-124.14-413.17-75.35-10.2,1.25-94.63,18.13-96.27,18.56-49.85,13.23-106,26.78-107.55,29.33,57.7.5,21.54.67,95.15,1.39,3.12,0,51,.93,56.64,1.68,0,0,96.51.52,141.12,1.44,61.48,5.41,77.82,5.73,119.52,12.24,45,7,69.72,11,50.89,23.66-40.72,27.34-224.5,94.34-476.71,168.74-384.62,113.45-987,225.89-1658.65,345.9-1167.22,208.53-2123.43,301.48-2142.14,195-3.78-21.53,29.07-64,101.73-88.89C628.8,2679.59,909.42,2577.14,906,2578.46c0,0-61.16,7-250.49,66.8-296.26,93.52-471.95,167-417.26,234.62,95.47,118,1056.09,75.74,2326.32-151.2S4834.92,2239,4854.92,2088.51Z" transform="translate(-223.86 -1864.67)" style="fill: #838bc5"/>
  </g>
  <g id="Livello_6" data-name="Livello 6">
    <path d="M3443.76,2061.59l3.89-.15c0-.08.12-.15.18-.23Z" transform="translate(-223.86 -1864.67)" style="fill: url(#Sfumatura_senza_nome_3)"/>
    <path d="M4864.18,2072.5c-1.75-67.66-15.14-123.06-413.7-74.59-10.21,1.24-94.76,18-96.41,18.44-49.92,13.13-114.55,42.17-116.14,44.7,57.55-2.71,32.46-3.34,106.17-2.65,3.12,0,53.09-1,58.7-.22,0,0,91.57-.37,136.23.53,61.56,5.34,78.75,4.14,120.5,10.58,45.09,6.95,62.29,12,43.43,24.58-40.78,27.12-217.48,85.1-470.05,158.92-385.17,112.58-988.36,224.21-1661,343.36C1403.1,2803.21,445.58,2895.62,426.88,2790.06c-3.78-21.34,28.71-58.36,101.48-83.11,92.91-38.28,389.89-132.4,389.89-132.4s-65.07,4.36-259.3,51.06c-302.35,72.68-445.48,169.22-434.5,231.18,26.24,148.16,1078.67,85.61,2350.66-139.72S4868.08,2222.92,4864.18,2072.5Z" transform="translate(-223.86 -1864.67)" style="fill: url(#Sfumatura_senza_nome_11)"/>
  </g>
  <g id="S">
    <path d="M1893.85,2178.6v162.54l-389.89.18c-69.5,0-90.36,18.43-90.36,72,0,46.71,7.55,81.38,97.56,81.38h184.32c209.64,0,256.47,135.06,256.47,245.58,0,129.88-69.5,225.58-245,225.58H1291.12l0-165.16,395,.48c72.92,0,94.56-19.53,94.56-75.36,0-50.13,1-72.69-93.6-72.69l-170.16.69c-205.08,0-267.84-132.3-267.84-239.4,0-127.61,82.54-235.8,253.44-235.8Z" transform="translate(-223.86 -1864.67)" style="fill: #5872c9"/>
  </g>
  <g id="B">
    <path d="M3621.06,2566.82c69.21-29.34,106.56-84.49,106.56-176,0-129.1-73.6-217.12-248.27-217.12h-389v792.12l.06.05h392.24c174.67,0,248.27-91.54,248.27-218.28C3730.92,2656,3691.37,2597.34,3621.06,2566.82Zm-350.95-227.41c0-1.45-1.36,0,0,0h153.51c79.09,0,141.7,14.3,141.7,76.5,0,64.55-74.31,72.29-151.21,72.29h-144Zm140.51,458.39h-141l-.08-142.56H3417.4c75.8,0,147.92,3.71,147.92,70.61C3565.32,2790.39,3488.62,2797.8,3410.62,2797.8Z" transform="translate(-223.86 -1864.67)" style="fill: #5872c9"/>
  </g>
</svg>
