<?xml version="1.0" encoding="UTF-8"?>
<svg width="201px" height="201px" viewBox="0 0 201 201" version="1.1" xmlns="http://www.w3.org/2000/svg" xmlns:xlink="http://www.w3.org/1999/xlink">
    <!-- Generator: Sketch 55.2 (78181) - https://sketchapp.com -->
    <title>space</title>
    <desc>Created with Sketch.</desc>
    <g id="Welcome" stroke="none" stroke-width="1" fill="none" fill-rule="evenodd">
        <g id="WEB_V2" transform="translate(-530.000000, -1540.000000)" fill="#0FB9B1" fill-rule="nonzero">
            <g id="space" transform="translate(530.000000, 1540.000000)">
                <path d="M162.137832,95.0637132 C161.607239,94.5331191 160.888023,94.2340849 160.136604,94.2340849 C159.385185,94.2340849 158.66597,94.5331191 158.135376,95.0637132 L149.448052,103.751038 L149.444984,103.747971 L139.598328,93.8997803 L139.579926,93.8875122 L165.467079,67.9988253 C166.758293,66.7275466 167.485176,64.9916152 167.485176,63.1790086 C167.485176,61.3664016 166.758293,59.6304702 165.467079,58.3576585 L142.949043,35.8396226 C140.283806,33.1820528 135.971581,33.1820528 133.307876,35.8396226 L107.422256,61.7237089 L97.253563,51.5534819 L97.2489624,51.5519484 L105.936287,42.864624 C107.041946,41.7589646 107.041946,39.9662935 105.936287,38.8606338 L67.9037476,0.829627893 C66.7980882,-0.276031494 65.0054171,-0.276031494 63.8997573,0.829627893 L39.8788833,24.8489685 C39.3482896,25.381096 39.0492554,26.1003113 39.0492554,26.8517305 C39.0492554,27.601616 39.3482896,28.3223647 39.8788833,28.8529588 L77.9129563,66.885498 C78.44355,67.4160917 79.1642991,67.7151259 79.9141846,67.7151259 C80.6656034,67.7151259 81.3848191,67.4160917 81.9169462,66.885498 L92.4337463,56.3671645 L92.4368136,56.3717651 L102.607041,66.5404588 L86.3625869,82.7849121 C102.231331,86.7428969 114.560738,99.2302551 118.317833,115.149605 L134.767776,98.6981276 L134.780044,98.7165297 L144.628235,108.56472 L144.632835,108.566254 L134.114502,119.084587 C133.583908,119.615181 133.284874,120.33593 133.284874,121.087349 C133.284874,121.837234 133.583908,122.557983 134.114502,123.088577 L172.147041,161.121117 C173.252701,162.226776 175.045372,162.226776 176.151031,161.121117 L200.170372,137.100243 C201.276031,135.994583 201.276031,134.201912 200.170372,133.096252 L162.137832,95.0637132 Z" id="Path"></path>
                <path d="M101.863289,99.1367112 C96.1080322,93.3615188 88.5907743,89.6703642 80.5015183,88.6444472 C78.9664766,88.4404907 77.4191665,88.3377404 75.8687895,88.3377404 C67.1814651,88.3331449 58.7717055,91.3970947 52.1239473,96.991333 C51.510544,97.5081252 51.1409682,98.2580107 51.1010972,99.0585022 C51.0627592,99.8605271 51.3587266,100.641083 51.9199904,101.216148 L99.7838515,149.08001 C100.358917,149.641273 101.139473,149.937241 101.941498,149.898903 C102.741989,149.859032 103.491875,149.489456 104.008667,148.876053 C109.602905,142.228294 112.666855,133.818535 112.662583,125.131211 C112.668388,123.764855 112.588646,122.400032 112.423027,121.042877 C111.509056,112.749664 107.782631,105.017715 101.863289,99.1367112 Z" id="Path"></path>
                <path d="M74.9486845,194.186623 C37.3363267,194.145218 6.8547823,163.663673 6.81337748,126.051316 C6.81337748,124.169701 5.28753662,122.64386 3.40745564,122.64386 C1.52584086,122.64386 0,124.169701 0,126.051316 C0.0460054453,167.425369 33.5746309,200.953995 74.9486845,201 C76.8302993,201 78.3561401,199.474159 78.3561401,197.592544 C78.3561401,195.71093 76.8302993,194.186623 74.9486845,194.186623 L74.9486845,194.186623 Z" id="Path"></path>
                <path d="M74.9486845,173.744957 C48.6198806,173.71582 27.2841797,152.380119 27.2535095,126.051316 C27.2535095,124.169701 25.7292021,122.64386 23.8475877,122.64386 C21.9659729,122.64386 20.440132,124.169701 20.440132,126.051316 C20.4754028,156.140282 44.8597182,180.524597 74.9486845,180.559868 C76.8302993,180.559868 78.3561401,179.034027 78.3561401,177.152412 C78.3561401,175.270798 76.8302993,173.744957 74.9486845,173.744957 L74.9486845,173.744957 Z" id="Path"></path>
                <path d="M74.9486845,153.304825 C59.9049683,153.287956 47.7120437,141.095032 47.6951754,126.051316 C47.6951754,124.169701 46.1693345,122.64386 44.2877197,122.64386 C42.4061049,122.64386 40.8817979,124.169701 40.8817979,126.051316 C40.9032668,144.856728 56.1432725,160.096733 74.9486845,160.118202 C76.8302993,160.118202 78.3561401,158.593895 78.3561401,156.71228 C78.3561401,154.830665 76.8302993,153.304825 74.9486845,153.304825 Z" id="Path"></path>
            </g>
        </g>
    </g>
</svg>