<?xml version="1.0" encoding="UTF-8"?>
<svg width="500px" height="115px" viewBox="0 0 500 115" version="1.1" xmlns="http://www.w3.org/2000/svg" xmlns:xlink="http://www.w3.org/1999/xlink">
    <!-- Generator: Sketch 49.3 (51167) - http://www.bohemiancoding.com/sketch -->
    <title>svetchytre</title>
    <desc>Created with Sketch.</desc>
    <defs></defs>
    <g id="Page-5" stroke="none" stroke-width="1" fill="none" fill-rule="evenodd">
        <g id="Artboard" fill-rule="nonzero">
            <g id="svetchytre" transform="translate(0.000000, -1.000000)">
                <path d="M91.3934426,19.8472131 L67.7868852,81.4307468 C67.295082,82.5742077 66.6393443,82.9825865 65.3278689,82.9825865 L62.6229508,82.9825865 C61.3114754,82.9825865 60.6557377,82.5742077 60.2459016,81.5124226 L36.6393443,19.8472131 C36.2295082,18.7854281 36.4754098,18.1320219 37.8688525,18.1320219 L40.4918033,18.1320219 C42.704918,18.1320219 43.3606557,18.458725 43.852459,19.7655373 L61.8032787,67.7092168 C62.7868852,70.6495446 63.6065574,74.0799271 64.0163934,74.9783607 L64.2622951,74.9783607 C64.6721311,74.0799271 65.3278689,70.7312204 66.3934426,67.7092168 L84.3442623,19.7655373 C84.6721311,18.458725 85.4098361,18.1320219 87.5409836,18.1320219 L90.2459016,18.1320219 C91.4754098,18.1320219 91.8032787,18.7854281 91.3934426,19.8472131 Z" id="Shape" fill="#818282"></path>
                <path d="M189.262295,19.9288889 L189.262295,22.4608379 C189.262295,23.849326 188.852459,24.3393807 187.459016,24.3393807 L168.934426,24.3393807 L168.934426,81.1040437 C168.934426,82.4925319 168.442623,82.9825865 167.131148,82.9825865 L164.098361,82.9825865 C162.704918,82.9825865 162.213115,82.4925319 162.213115,81.1040437 L162.213115,24.3393807 L143.688525,24.3393807 C142.377049,24.3393807 141.885246,23.849326 141.885246,22.4608379 L141.885246,19.9288889 C141.885246,18.5404007 142.377049,18.1320219 143.688525,18.1320219 L187.459016,18.1320219 C188.852459,18.1320219 189.262295,18.5404007 189.262295,19.9288889 Z" id="Shape" fill="#818282"></path>
                <path d="M221.885246,16.8252095 C235.901639,16.8252095 243.114754,22.2974863 246.311475,32.4252823 C246.721311,33.8137705 246.47541,34.3855009 245.163934,34.7938798 L242.377049,35.8556648 C241.065574,36.1823679 240.491803,36.0190164 240,34.712204 C237.459016,26.7896539 232.459016,22.9508925 221.885246,22.9508925 C209.836066,22.9508925 203.442623,29.1582514 203.442623,39.6944262 L203.442623,61.4201821 C203.442623,71.7930055 209.918033,78.1637158 221.885246,78.1637158 C232.704918,78.1637158 237.704918,73.9982514 240.163934,66.0757013 C240.737705,64.7688889 241.229508,64.5238616 242.540984,64.8505647 L245.409836,65.9940255 C246.557377,66.4024044 246.967213,66.9741348 246.47541,68.2809472 C243.278689,78.4904189 236.229508,84.2077231 221.885246,84.2077231 C205.737705,84.2077231 196.803279,75.5500911 196.803279,61.3385064 L196.803279,39.776102 C196.803279,25.4828415 205.491803,16.8252095 221.885246,16.8252095 Z" id="Shape" fill="#B81E7F"></path>
                <path d="M351.065574,19.9288889 L327.131148,56.6829872 L327.131148,81.1040437 C327.131148,82.4925319 326.639344,82.9825865 325.327869,82.9825865 L322.295082,82.9825865 C320.901639,82.9825865 320.409836,82.4925319 320.409836,81.1040437 L320.409836,56.6013115 L296.557377,19.9288889 C295.901639,18.9487796 296.147541,18.1320219 297.459016,18.1320219 L301.229508,18.1320219 C303.278689,18.1320219 303.852459,18.2136976 304.672131,19.7655373 L323.852459,49.8222222 L343.196721,19.7655373 C344.016393,18.2136976 344.590164,18.1320219 346.639344,18.1320219 L350.163934,18.1320219 C351.393443,18.1320219 351.721311,18.9487796 351.065574,19.9288889 Z" id="Shape" fill="#438288"></path>
                <path d="M405.327869,19.9288889 L405.327869,22.4608379 C405.327869,23.849326 404.836066,24.3393807 403.442623,24.3393807 L384.918033,24.3393807 L384.918033,81.1040437 C384.918033,82.4925319 384.508197,82.9825865 383.114754,82.9825865 L380.081967,82.9825865 C378.688525,82.9825865 378.278689,82.4925319 378.278689,81.1040437 L378.278689,24.3393807 L359.754098,24.3393807 C358.360656,24.3393807 357.868852,23.849326 357.868852,22.4608379 L357.868852,19.9288889 C357.868852,18.5404007 358.360656,18.1320219 359.754098,18.1320219 L403.442623,18.1320219 C404.836066,18.1320219 405.327869,18.5404007 405.327869,19.9288889 Z" id="Shape" fill="#61A4D0"></path>
                <path d="M99.5901639,23.1142441 C99.5901639,23.7676503 100.163934,24.3393807 100.819672,24.3393807 L132.131148,24.3393807 C133.442623,24.3393807 133.934426,23.849326 133.934426,22.4608379 L133.934426,19.9288889 C133.934426,18.5404007 133.442623,18.1320219 132.131148,18.1320219 L100.819672,18.1320219 C100.163934,18.1320219 99.5901639,18.7037523 99.5901639,19.3571585 L99.5901639,23.1142441 Z" id="Shape" fill="#818282"></path>
                <path d="M133.934426,51.3740619 L133.934426,48.8421129 C133.934426,47.4536248 133.442623,46.9635701 132.131148,46.9635701 L100.819672,46.9635701 C100.163934,46.9635701 99.5901639,47.5353005 99.5901639,48.1887067 L99.5901639,51.9457923 C99.5901639,52.5991985 100.163934,53.170929 100.819672,53.170929 L132.131148,53.170929 C133.442623,53.170929 133.934426,52.7625501 133.934426,51.3740619 Z" id="Shape" fill="#818282"></path>
                <path d="M112.868852,11.8429872 C114.180328,13.2314754 114.508197,13.394827 116.065574,13.394827 L116.803279,13.394827 C118.196721,13.394827 118.442623,13.2314754 119.918033,11.8429872 L131.065574,2.04189435 C131.721311,1.38848816 131.721311,0.653406193 130.327869,0.653406193 L127.786885,0.653406193 C126.393443,0.653406193 125.901639,0.735081967 125,1.55183971 L116.311475,9.1476867 L107.377049,1.55183971 C106.557377,0.735081967 106.147541,0.653406193 104.754098,0.653406193 L102.377049,0.653406193 C100.901639,0.653406193 100.901639,1.38848816 101.557377,2.04189435 L112.868852,11.8429872 Z" id="Shape" fill="#818282"></path>
                <path d="M132.131148,76.7752277 L100.819672,76.7752277 C100.163934,76.7752277 99.5901639,77.3469581 99.5901639,78.0003643 L99.5901639,81.7574499 C99.5901639,82.4108561 100.163934,82.9825865 100.819672,82.9825865 L132.131148,82.9825865 C133.442623,82.9825865 133.934426,82.4925319 133.934426,81.1040437 L133.934426,78.5720947 C133.934426,77.1836066 133.442623,76.7752277 132.131148,76.7752277 Z" id="Shape" fill="#818282"></path>
                <path d="M287.622951,18.1320219 L284.590164,18.1320219 C283.52459,18.1320219 282.704918,18.9487796 282.704918,19.9288889 L282.704918,46.9635701 L251.311475,46.9635701 C250.819672,46.9635701 250.409836,47.371949 250.409836,47.8620036 L250.409836,52.2724954 C250.409836,52.7625501 250.819672,53.170929 251.311475,53.170929 L282.704918,53.170929 L282.704918,81.1040437 C282.704918,82.1658288 283.52459,82.9825865 284.590164,82.9825865 L287.622951,82.9825865 C288.852459,82.9825865 289.344262,82.4925319 289.344262,81.1040437 L289.344262,19.9288889 C289.344262,18.5404007 288.852459,18.1320219 287.622951,18.1320219 Z" id="Shape" fill="#407C97"></path>
                <path d="M426.311475,11.8429872 C427.704918,13.2314754 428.032787,13.394827 429.590164,13.394827 L430.327869,13.394827 C431.557377,13.394827 431.967213,13.2314754 433.442623,11.8429872 L444.590164,2.04189435 C445.245902,1.38848816 445.245902,0.653406193 443.770492,0.653406193 L441.311475,0.653406193 C439.836066,0.653406193 439.344262,0.735081967 438.52459,1.55183971 L429.754098,9.1476867 L420.901639,1.55183971 C419.918033,0.735081967 419.590164,0.653406193 418.196721,0.653406193 L415.819672,0.653406193 C414.42623,0.653406193 414.42623,1.38848816 415.081967,2.04189435 L426.311475,11.8429872 Z" id="Shape" fill="#A5A858"></path>
                <path d="M455.327869,81.1040437 L445,61.2568306 C443.442623,58.234827 441.803279,56.1929326 439.098361,54.8861202 C448.442623,53.4159563 454.098361,46.8818944 453.852459,36.3457195 C453.52459,26.1362477 444.836066,18.1320219 434.590164,18.1320219 L415.819672,18.1320219 C415.163934,18.1320219 414.672131,18.6220765 414.672131,19.2754827 L414.672131,23.1959199 C414.672131,23.849326 415.163934,24.3393807 415.819672,24.3393807 L433.934426,24.3393807 C442.295082,24.3393807 446.967213,28.913224 446.967213,36.9991257 C446.967213,45.0850273 442.04918,49.4955191 433.934426,49.4955191 L415.819672,49.4955191 C415.163934,49.4955191 414.672131,50.0672495 414.672131,50.63898 L414.672131,54.6410929 C414.672131,55.2128233 415.163934,55.7845537 415.819672,55.7845537 L425.737705,55.7845537 C433.032787,55.7845537 436.065574,57.9897996 438.852459,63.7071038 L447.786885,81.349071 C448.442623,82.6558834 449.180328,82.9825865 451.311475,82.9825865 L454.344262,82.9825865 C455.737705,82.9825865 455.901639,82.1658288 455.327869,81.1040437 Z" id="Shape" fill="#A5A858"></path>
                <path d="M10.7377049,47.1269217 C7.37704918,46.8002186 4.18032787,46.3101639 1.31147541,45.4934062 C0.819672131,45.4117304 0.409836066,45.575082 0.163934426,45.9834608 L0.163934426,51.7824408 C0.245901639,52.0274681 0.491803279,52.1908197 0.819672131,52.2724954 C3.52459016,52.8442259 6.39344262,53.2526047 9.18032787,53.5793078 C18.442623,54.5594171 27.0491803,55.9479053 27.0491803,65.2589435 C27.0491803,73.8348998 20.8196721,78.0003643 8.85245902,78.0003643 C6.06557377,78.0003643 3.52459016,77.5919854 1.31147541,76.8569035 C0.901639344,76.6935519 0.409836066,76.9385792 0.163934426,77.3469581 L0.163934426,82.9009107 C0.245901639,83.1459381 0.491803279,83.3092896 0.819672131,83.3909654 C3.19672131,83.9626958 5.81967213,84.2077231 8.85245902,84.2077231 C25.1639344,84.2077231 33.7704918,77.020255 33.7704918,65.095592 C33.7704918,50.5573042 21.7213115,48.4337341 10.7377049,47.1269217 Z" id="Shape" fill="#818282"></path>
                <path d="M32.7868852,30.8734426 C28.1147541,21.317377 21.3114754,16.8252095 8.68852459,16.8252095 C5.73770492,16.8252095 3.19672131,17.1519126 0.819672131,17.723643 C0.491803279,17.723643 0.245901639,17.9686703 0.163934426,18.2136976 L0.163934426,23.6042987 C0.409836066,23.9310018 0.819672131,24.1760291 1.31147541,24.0126776 C3.44262295,23.4409472 5.90163934,23.1142441 8.68852459,23.1142441 C17.9508197,23.1142441 22.9508197,26.7079781 26.557377,33.7320947 C27.295082,34.9572313 27.704918,35.1205829 28.9344262,34.5488525 L31.7213115,33.2420401 C33.0327869,32.7519854 33.3606557,32.0985792 32.7868852,30.8734426 Z" id="Shape" fill="#818282"></path>
                <path d="M474.098361,94.8255738 C478.278689,94.8255738 480.655738,96.540765 481.721311,99.5627687 C481.967213,100.216175 481.803279,100.542878 481.147541,100.787905 L479.590164,101.27796 C478.934426,101.522987 478.688525,101.441311 478.442623,100.70623 C477.786885,98.9910383 476.47541,98.0926047 474.098361,98.0926047 C471.229508,98.0926047 469.590164,99.5627687 469.590164,102.094718 L469.590164,108.302077 C469.590164,110.915701 471.229508,112.304189 474.098361,112.304189 C476.47541,112.304189 477.786885,111.405756 478.442623,109.690565 C478.688525,109.037158 478.934426,108.873807 479.672131,109.118834 L481.147541,109.690565 C481.803279,109.935592 481.967213,110.180619 481.803279,110.915701 C480.737705,113.937705 478.278689,115.57122 474.098361,115.57122 C468.934426,115.57122 466.065574,112.794244 466.065574,108.302077 L466.065574,102.176393 C466.065574,97.6842259 468.934426,94.8255738 474.098361,94.8255738 Z" id="Shape" fill="#E9BC66"></path>
                <path d="M499.262295,96.2140619 L499.262295,97.6025501 C499.262295,98.010929 499.180328,98.3376321 498.934426,98.5826594 L489.262295,111.895811 L498.442623,111.895811 C499.180328,111.895811 499.42623,112.140838 499.42623,112.87592 L499.42623,114.182732 C499.42623,114.917814 499.180328,115.162842 498.442623,115.162842 L485.737705,115.162842 C485.081967,115.162842 484.836066,114.917814 484.836066,114.182732 L484.836066,112.87592 C484.836066,112.467541 484.918033,112.140838 485.163934,111.895811 L494.836066,98.5826594 L485.901639,98.5826594 C485.245902,98.5826594 484.918033,98.3376321 484.918033,97.6025501 L484.918033,96.2140619 C484.918033,95.5606557 485.245902,95.2339526 485.901639,95.2339526 L498.278689,95.2339526 C499.016393,95.2339526 499.262295,95.5606557 499.262295,96.2140619 Z" id="Shape" fill="#E9BC66"></path>
                <path d="M465.655738,23.1142441 C465.655738,23.7676503 466.147541,24.3393807 466.885246,24.3393807 L498.196721,24.3393807 C499.508197,24.3393807 499.918033,23.849326 499.918033,22.4608379 L499.918033,19.9288889 C499.918033,18.5404007 499.508197,18.1320219 498.196721,18.1320219 L466.885246,18.1320219 C466.147541,18.1320219 465.655738,18.7037523 465.655738,19.3571585 L465.655738,23.1142441 Z" id="Shape" fill="#DA9559"></path>
                <path d="M499.918033,51.3740619 L499.918033,48.8421129 C499.918033,47.4536248 499.508197,46.9635701 498.196721,46.9635701 L466.885246,46.9635701 C466.147541,46.9635701 465.655738,47.5353005 465.655738,48.1887067 L465.655738,51.9457923 C465.655738,52.5991985 466.147541,53.170929 466.885246,53.170929 L498.196721,53.170929 C499.508197,53.170929 499.918033,52.7625501 499.918033,51.3740619 Z" id="Shape" fill="#DA9559"></path>
                <path d="M498.196721,76.7752277 L466.885246,76.7752277 C466.147541,76.7752277 465.655738,77.3469581 465.655738,78.0003643 L465.655738,81.7574499 C465.655738,82.4108561 466.147541,82.9825865 466.885246,82.9825865 L498.196721,82.9825865 C499.508197,82.9825865 499.918033,82.4925319 499.918033,81.1040437 L499.918033,78.5720947 C499.918033,77.1836066 499.508197,76.7752277 498.196721,76.7752277 Z" id="Shape" fill="#DA9559"></path>
            </g>
        </g>
    </g>
</svg>